<svg width="17" height="17" viewBox="0 0 17 17" fill="none" xmlns="http://www.w3.org/2000/svg">
<path d="M15.3978 1.6021C13.2617 -0.534056 9.78609 -0.534022 7.64993 1.60213C6.19082 3.06124 5.68401 5.21151 6.3158 7.16236L0.145928 13.3323C0.0525273 13.4257 0 13.5521 0 13.6844V16.502C0 16.7773 0.22276 17 0.498047 17H3.3156C3.44788 17 3.57435 16.9475 3.66772 16.8541L4.37199 16.1493C4.47947 16.0418 4.53199 15.8911 4.5145 15.7398L4.42694 14.983L5.47556 14.8842C5.71389 14.8619 5.90212 14.6736 5.9245 14.4353L6.02325 13.3867L6.78004 13.4747C6.92059 13.4937 7.06214 13.4465 7.16865 13.3522C7.27467 13.2573 7.33547 13.1221 7.33547 12.9801V12.0528H8.24596C8.37824 12.0528 8.50471 12.0002 8.59808 11.9068L9.87531 10.6465C11.8257 11.2788 13.9387 10.8102 15.3978 9.35005C17.534 7.21393 17.534 3.73826 15.3978 1.6021ZM13.9889 5.12396C13.4062 5.70664 12.4587 5.70664 11.8761 5.12396C11.2934 4.54127 11.2934 3.59382 11.8761 3.01114C12.4587 2.42846 13.4062 2.42846 13.9889 3.01114C14.5716 3.59382 14.5715 4.54127 13.9889 5.12396Z" fill="#FECE24"/>
</svg>
