<svg width="32" height="28" viewBox="0 0 32 28" fill="none" xmlns="http://www.w3.org/2000/svg">
<path d="M18.8238 25.0588H11.7649C11.7649 22.7198 9.86873 20.8236 7.52965 20.8236C5.19056 20.8236 3.29435 22.7198 3.29435 25.0588H2.35318C1.83338 25.0588 1.412 24.6375 1.412 24.1177V19.8824C1.412 19.4178 1.75093 19.0228 2.21007 18.9521L7.94023 18.0706L11.4744 13.2112C11.6515 12.9676 11.9344 12.8236 12.2355 12.8236H22.1179C22.4623 12.8236 22.7792 13.0117 22.9441 13.314L25.5001 18H28.7061C29.2259 18 29.6473 18.4214 29.6473 18.9412V24.1177C29.6473 24.6375 29.2259 25.0588 28.7061 25.0588H27.2943C27.2943 22.7198 25.3981 20.8236 23.0591 20.8236C20.72 20.8236 18.8238 22.7198 18.8238 25.0588ZM10.3191 18H23.356L21.5592 14.7059H12.7148L10.3191 18ZM7.52965 27.8824C5.97025 27.8824 4.70612 26.6182 4.70612 25.0588C4.70612 23.4995 5.97025 22.2353 7.52965 22.2353C9.08904 22.2353 10.3532 23.4995 10.3532 25.0588C10.3532 26.6182 9.08904 27.8824 7.52965 27.8824ZM7.52965 26C8.04944 26 8.47082 25.5786 8.47082 25.0588C8.47082 24.5391 8.04944 24.1177 7.52965 24.1177C7.00985 24.1177 6.58847 24.5391 6.58847 25.0588C6.58847 25.5786 7.00985 26 7.52965 26ZM23.0591 27.8824C21.4997 27.8824 20.2355 26.6182 20.2355 25.0588C20.2355 23.4995 21.4997 22.2353 23.0591 22.2353C24.6184 22.2353 25.8826 23.4995 25.8826 25.0588C25.8826 26.6182 24.6184 27.8824 23.0591 27.8824ZM23.0591 26C23.5789 26 24.0002 25.5786 24.0002 25.0588C24.0002 24.5391 23.5789 24.1177 23.0591 24.1177C22.5393 24.1177 22.1179 24.5391 22.1179 25.0588C22.1179 25.5786 22.5393 26 23.0591 26ZM1.31865 8.50935C0.842434 8.71769 0.287494 8.50054 0.079149 8.02432C-0.129195 7.54811 0.0879543 6.99317 0.56417 6.78482L15.623 0.196586C15.8635 0.0913723 16.137 0.0913723 16.3775 0.196586L31.4363 6.78482C31.9125 6.99317 32.1297 7.54811 31.9213 8.02432C31.713 8.50054 31.158 8.71769 30.6818 8.50935L16.0002 2.08616L1.31865 8.50935Z" fill="#272C31"/>
</svg>
