<svg width="28" height="28" viewBox="0 0 28 28" fill="none" xmlns="http://www.w3.org/2000/svg">
<path d="M2.5 9H0.5C0.223858 9 0 9.22386 0 9.5V27.5C0 27.7761 0.223858 28 0.5 28H2.5C2.77614 28 3 27.7761 3 27.5V9.5C3 9.22386 2.77614 9 2.5 9Z" fill="#272C31"/>
<path d="M27.5 9H25.5C25.2239 9 25 9.22386 25 9.5V27.5C25 27.7761 25.2239 28 25.5 28H27.5C27.7761 28 28 27.7761 28 27.5V9.5C28 9.22386 27.7761 9 27.5 9Z" fill="#272C31"/>
<path d="M15.4143 7.58571C15.3486 7.58578 15.2835 7.57287 15.2229 7.54773C15.1622 7.52259 15.1071 7.48571 15.0608 7.43921C14.7791 7.15849 14.3976 7.00086 14 7.00086C13.6023 7.00086 13.2208 7.15849 12.9392 7.43921C12.8449 7.53028 12.7186 7.58068 12.5875 7.57954C12.4564 7.5784 12.3309 7.52582 12.2382 7.43311C12.1455 7.34041 12.093 7.215 12.0918 7.08391C12.0907 6.95281 12.1411 6.82651 12.2322 6.73221C12.7014 6.2641 13.3371 6.00122 14 6.00122C14.6628 6.00122 15.2985 6.2641 15.7678 6.73221C15.8377 6.80213 15.8853 6.89121 15.9045 6.98819C15.9238 7.08517 15.9139 7.18568 15.8761 7.27703C15.8383 7.36838 15.7742 7.44646 15.692 7.50141C15.6098 7.55635 15.5131 7.58568 15.4143 7.58571Z" fill="#272C31"/>
<path d="M16.8282 6.17166C16.7625 6.17173 16.6975 6.15882 16.6368 6.13368C16.5762 6.10854 16.5211 6.07166 16.4747 6.02516C15.8183 5.36879 14.9281 5.00005 13.9998 5.00005C13.0716 5.00005 12.1814 5.36879 11.525 6.02516C11.4788 6.07255 11.4236 6.1103 11.3627 6.13621C11.3018 6.16212 11.2364 6.17568 11.1702 6.1761C11.104 6.17652 11.0384 6.16379 10.9771 6.13865C10.9159 6.11352 10.8602 6.07647 10.8134 6.02966C10.7666 5.98286 10.7296 5.92722 10.7044 5.86599C10.6793 5.80475 10.6666 5.73914 10.667 5.67294C10.6674 5.60675 10.681 5.5413 10.7069 5.48039C10.7328 5.41948 10.7706 5.36431 10.8179 5.31811C11.2358 4.90022 11.7318 4.56873 12.2778 4.34257C12.8237 4.1164 13.4089 4 13.9998 4C14.5908 4 15.1759 4.1164 15.7219 4.34257C16.2679 4.56873 16.7639 4.90022 17.1817 5.31811C17.2517 5.38803 17.2993 5.47712 17.3186 5.57411C17.3379 5.6711 17.328 5.77163 17.2901 5.863C17.2523 5.95436 17.1882 6.03245 17.106 6.08739C17.0238 6.14233 16.9271 6.17165 16.8282 6.17166Z" fill="#272C31"/>
<path d="M18.2426 4.75728C18.1769 4.75737 18.1119 4.74447 18.0512 4.71934C17.9905 4.69421 17.9354 4.65733 17.8891 4.61083C16.8567 3.58108 15.4581 3.00279 13.9999 3.00279C12.5418 3.00279 11.1431 3.58108 10.1108 4.61083C10.0166 4.70264 9.89006 4.75365 9.75855 4.75282C9.62704 4.75198 9.50116 4.69937 9.40817 4.60638C9.31517 4.51339 9.26256 4.3875 9.26173 4.25599C9.2609 4.12449 9.31191 3.99794 9.40371 3.90378C10.6237 2.68669 12.2766 2.00317 13.9999 2.00317C15.7232 2.00317 17.3761 2.68669 18.5961 3.90378C18.666 3.97371 18.7136 4.06279 18.7329 4.15977C18.7522 4.25674 18.7423 4.35726 18.7045 4.44861C18.6666 4.53996 18.6025 4.61804 18.5203 4.67298C18.4381 4.72792 18.3415 4.75726 18.2426 4.75728Z" fill="#272C31"/>
<path d="M19.6568 3.34324C19.5911 3.34332 19.5261 3.33042 19.4654 3.30529C19.4047 3.28016 19.3496 3.24329 19.3032 3.19679C18.6068 2.50032 17.78 1.94785 16.8701 1.57092C15.9602 1.19399 14.9849 0.999984 14 0.999984C13.0151 0.999984 12.0398 1.19399 11.1299 1.57092C10.22 1.94785 9.39322 2.50032 8.69682 3.19679C8.65093 3.24547 8.59573 3.28444 8.53451 3.3114C8.47328 3.33836 8.40727 3.35276 8.34037 3.35375C8.27348 3.35473 8.20707 3.34229 8.14507 3.31714C8.08308 3.29199 8.02676 3.25466 7.97945 3.20736C7.93215 3.16005 7.89482 3.10373 7.86967 3.04174C7.84452 2.97974 7.83208 2.91333 7.83306 2.84644C7.83405 2.77955 7.84845 2.71353 7.87541 2.6523C7.90237 2.59108 7.94134 2.53588 7.99002 2.48999C8.77926 1.70065 9.71626 1.07451 10.7475 0.647312C11.7788 0.220119 12.884 0.000244141 14.0003 0.000244141C15.1165 0.000244141 16.2218 0.220119 17.253 0.647312C18.2843 1.07451 19.2213 1.70065 20.0105 2.48999C20.0804 2.55992 20.128 2.649 20.1473 2.74597C20.1666 2.84295 20.1567 2.94347 20.1189 3.03482C20.081 3.12617 20.017 3.20425 19.9347 3.25919C19.8525 3.31413 19.7559 3.34347 19.657 3.34349L19.6568 3.34324Z" fill="#272C31"/>
<path d="M14.5 28H24V11H20.6494C20.1155 11.0117 19.5916 10.8549 19.1518 10.552C17.7613 9.64501 16.1575 9.11782 14.5 9.02283V28ZM16.5 18C16.6326 18 16.7598 18.0527 16.8536 18.1464C16.9473 18.2402 17 18.3674 17 18.5V20.5C17 20.6326 16.9473 20.7598 16.8536 20.8535C16.7598 20.9473 16.6326 21 16.5 21C16.3674 21 16.2402 20.9473 16.1464 20.8535C16.0527 20.7598 16 20.6326 16 20.5V18.5C16 18.3674 16.0527 18.2402 16.1464 18.1464C16.2402 18.0527 16.3674 18 16.5 18Z" fill="#272C31"/>
<path d="M4 28H13.5V9.02283C11.8426 9.1178 10.2389 9.64499 8.8484 10.552C8.40857 10.8549 7.88453 11.0116 7.3506 11H4V28ZM11 18.5C11 18.3674 11.0527 18.2402 11.1464 18.1464C11.2402 18.0527 11.3674 18 11.5 18C11.6326 18 11.7598 18.0527 11.8536 18.1464C11.9473 18.2402 12 18.3674 12 18.5V20.5C12 20.6326 11.9473 20.7598 11.8536 20.8535C11.7598 20.9473 11.6326 21 11.5 21C11.3674 21 11.2402 20.9473 11.1464 20.8535C11.0527 20.7598 11 20.6326 11 20.5V18.5Z" fill="#272C31"/>
</svg>
