<svg width="28" height="32" viewBox="0 0 28 32" fill="none" xmlns="http://www.w3.org/2000/svg">
<path d="M13.9375 26.9375V15.75C13.9375 12.5869 11.3194 9.0625 7.5625 9.0625H7.25C3.5625 9.0625 0.5625 12.0625 0.5625 15.75V26C0.5625 26.5177 0.98225 26.9375 1.5 26.9375H13.9375Z" fill="#272C31"/>
<path d="M20.7504 9.0625H19.8129V13.5C19.8129 14.0177 19.3931 14.4375 18.8754 14.4375C18.3576 14.4375 17.9379 14.0177 17.9379 13.5C17.9379 12.7511 17.9379 7.96187 17.9379 6.9375H24.0004C24.7282 6.9375 25.1786 6.14162 24.8042 5.51769L23.5901 3.49412L24.8094 1.41112C25.1745 0.787375 24.724 0 24.0004 0H17.0004C16.4826 0 16.0629 0.41975 16.0629 0.9375V9.0625H12.6309C14.6489 10.7534 15.8129 13.2841 15.8129 15.75V26.9375H26.5004C27.0181 26.9375 27.4379 26.5177 27.4379 26V15.75C27.4379 12.0625 24.4379 9.0625 20.7504 9.0625Z" fill="#272C31"/>
<path d="M12.0625 28.8125V31.0625C12.0625 31.5803 12.4822 32 13 32H17C17.5177 32 17.9375 31.5803 17.9375 31.0625V28.8125H12.0625Z" fill="#272C31"/>
</svg>
