<svg width="32" height="32" viewBox="0 0 32 32" fill="none" xmlns="http://www.w3.org/2000/svg">
<path d="M7.55374 4.07617C5.50962 4.07617 3.84668 5.73917 3.84668 7.78323C3.84668 9.8273 5.50968 11.4903 7.55374 11.4903C9.5978 11.4903 11.2608 9.82736 11.2608 7.78323C11.2608 5.73911 9.59787 4.07617 7.55374 4.07617Z" fill="#272C31"/>
<path d="M23.1314 28.9353L19.8125 19.5749H13.3811L10.4361 12.585H5.63L1.96512 22.5528C1.817 22.9557 1.78619 23.3857 1.866 23.7958H0V25.6708H9.6525H10.217H15.8704L18.996 30.8842C19.4223 31.5952 20.1832 31.9998 20.9696 31.9998C21.2805 31.9998 21.5956 31.9365 21.8953 31.804C22.9876 31.321 23.5304 30.061 23.1314 28.9353ZM6.59656 23.7958L7.713 22.0059L8.66025 23.7958H6.59656Z" fill="#272C31"/>
<path d="M22.4819 7.04143C22.4819 5.85318 22.0013 5.20112 21.6504 4.72499C21.3599 4.33087 21.1846 4.09293 21.1846 3.52093C21.1846 2.94887 21.3599 2.71099 21.6504 2.31674C22.0013 1.84062 22.4819 1.18856 22.4819 0.000244141H20.6069C20.6069 0.572244 20.4315 0.810182 20.1411 1.20437C19.7902 1.68049 19.3096 2.33256 19.3096 3.52087C19.3096 4.70912 19.7901 5.36118 20.1411 5.83731C20.4315 6.23143 20.6069 6.46937 20.6069 7.04137C20.6069 7.61356 20.4315 7.85149 20.141 8.24574C19.7901 8.72206 19.3096 9.37418 19.3096 10.5626C19.3096 11.7509 19.7901 12.4031 20.141 12.8792C20.4315 13.2734 20.6069 13.5114 20.6069 14.0836H22.4819C22.4819 12.8952 22.0014 12.2431 21.6504 11.7669C21.3599 11.3726 21.1846 11.1347 21.1846 10.5625C21.1846 9.99031 21.3599 9.75243 21.6504 9.35812C22.0013 8.88193 22.4819 8.22981 22.4819 7.04143Z" fill="#272C31"/>
<path d="M27.2407 7.04137C27.2407 5.85312 26.7601 5.20105 26.4092 4.72493C26.1187 4.3308 25.9434 4.09287 25.9434 3.52087C25.9434 2.9488 26.1187 2.71093 26.4092 2.31668C26.76 1.84074 27.2407 1.18868 27.2407 0.000366211H25.3657C25.3657 0.572366 25.1903 0.810304 24.8999 1.20449C24.549 1.68062 24.0684 2.33268 24.0684 3.52099C24.0684 4.70924 24.5489 5.3613 24.8999 5.83743C25.1903 6.23155 25.3657 6.46949 25.3657 7.04149C25.3657 7.61368 25.1903 7.85162 24.8998 8.24587C24.5489 8.72205 24.0684 9.37418 24.0684 10.5625C24.0684 11.7508 24.5489 12.403 24.8998 12.8791C25.1903 13.2734 25.3657 13.5114 25.3657 14.0835H27.2407C27.2407 12.8951 26.7602 12.243 26.4092 11.7668C26.1187 11.3726 25.9434 11.1346 25.9434 10.5624C25.9434 9.99024 26.1187 9.75237 26.4092 9.35805C26.7601 8.88187 27.2407 8.22974 27.2407 7.04137Z" fill="#272C31"/>
<path d="M32.0004 7.04155C32.0004 5.8533 31.5199 5.20124 31.1689 4.72512C30.8785 4.33099 30.7031 4.09305 30.7031 3.52105C30.7031 2.94899 30.8785 2.71112 31.1689 2.31687C31.5199 1.84074 32.0004 1.18868 32.0004 0.000366211H30.1254C30.1254 0.572366 29.9501 0.810304 29.6596 1.20449C29.3087 1.68062 28.8281 2.33268 28.8281 3.52099C28.8281 4.70924 29.3087 5.3613 29.6596 5.83743C29.9501 6.23155 30.1254 6.46949 30.1254 7.04149C30.1254 7.61368 29.9501 7.85162 29.6596 8.24587C29.3087 8.72205 28.8281 9.37418 28.8281 10.5625C28.8281 11.7508 29.3086 12.403 29.6596 12.8791C29.9501 13.2734 30.1254 13.5114 30.1254 14.0835H32.0004C32.0004 12.8951 31.5199 12.243 31.169 11.7668C30.8785 11.3726 30.7031 11.1346 30.7031 10.5624C30.7031 9.99024 30.8785 9.75237 31.169 9.35805C31.5199 8.88205 32.0004 8.22993 32.0004 7.04155Z" fill="#272C31"/>
</svg>
