<svg width="24" height="32" viewBox="0 0 24 32" fill="none" xmlns="http://www.w3.org/2000/svg">
<path d="M22 12.5563V9.99998C22 4.48634 17.5136 0 12 0C6.48633 0 1.99998 4.48634 1.99998 9.99998V12.5563C0.810185 13.25 0 14.5258 0 16V28C0 30.206 1.79392 31.9999 3.99997 31.9999H20C22.206 31.9999 23.9999 30.206 23.9999 28V16C23.9999 14.5257 23.1898 13.25 22 12.5563ZM12 3.99997C15.3086 3.99997 18 6.69134 18 9.99998V12H5.99995V9.99998C5.99995 6.6914 8.69139 3.99997 12 3.99997ZM14 23.2214V26H9.99998V23.2214C9.39034 22.6723 8.99999 21.885 8.99999 21C8.99999 19.3431 10.3431 18 12 18C13.6568 18 14.9999 19.3431 14.9999 21C14.9999 21.885 14.6096 22.6723 14 23.2214Z" fill="#5E6F9C"/>
</svg>
