<svg width="30" height="32" viewBox="0 0 30 32" fill="none" xmlns="http://www.w3.org/2000/svg">
<path d="M7.5 20.6875C8.01777 20.6875 8.4375 20.2678 8.4375 19.75C8.4375 19.2322 8.01777 18.8125 7.5 18.8125C6.98223 18.8125 6.5625 19.2322 6.5625 19.75C6.5625 20.2678 6.98223 20.6875 7.5 20.6875Z" fill="#5E6F9C"/>
<path d="M7.5 32C9.12231 32 14.0625 31.9375 14.0625 27.25V14.7952C12.6091 14.3992 10.8818 14.125 8.4375 14.125C6.37025 14.125 4.6875 12.4432 4.6875 10.375C4.6875 8.30681 6.37025 6.625 8.4375 6.625C10.7709 6.625 12.5573 6.84875 14.0625 7.18094V4.75C14.0625 0.0625 9.12231 0 7.5 0C5.87769 0 0.9375 0.0625 0.9375 4.75V27.25C0.9375 31.9375 5.87769 32 7.5 32ZM7.5 16.9375C9.05087 16.9375 10.3125 18.1991 10.3125 19.75C10.3125 20.9706 9.52637 22.0015 8.4375 22.3898V25.375C8.4375 25.8932 8.01819 26.3125 7.5 26.3125C6.98181 26.3125 6.5625 25.8932 6.5625 25.375V22.3898C5.47363 22.0015 4.6875 20.9706 4.6875 19.75C4.6875 18.1991 5.94913 16.9375 7.5 16.9375Z" fill="#5E6F9C"/>
<path d="M6.5625 10.375C6.5625 11.4086 7.40294 12.25 8.4375 12.25C13.1287 12.25 15.5091 13.2031 17.8125 14.125C20.224 15.0891 22.5 16 27.1875 16C28.2221 16 29.0625 15.1586 29.0625 14.125C29.0625 13.0914 28.2221 12.25 27.1875 12.25C22.4963 12.25 20.1159 11.2969 17.8125 10.375C15.401 9.41094 13.125 8.5 8.4375 8.5C7.40294 8.5 6.5625 9.34137 6.5625 10.375Z" fill="#5E6F9C"/>
</svg>
