<svg width="32" height="32" viewBox="0 0 32 32" fill="none" xmlns="http://www.w3.org/2000/svg">
<g clip-path="url(#clip0_107_325)">
<path d="M7.72363 17.6391C7.72363 17.6392 7.7237 17.6393 7.7237 17.6393C7.74351 17.6193 7.7422 17.6205 7.72363 17.6391Z" fill="#5E6F9C"/>
<path d="M31.2905 13.2162L29.6993 12.8336C29.3533 11.3231 28.7573 9.88777 27.9243 8.55314L28.7308 7.19927C28.9505 6.83039 28.891 6.35983 28.588 6.05683L25.9452 3.41402C25.6422 3.11195 25.1726 3.05152 24.8027 3.2712L23.4488 4.07764C22.1142 3.24464 20.6788 2.6487 19.1684 2.3027L18.7858 0.711453C18.6814 0.294953 18.307 0.00195312 17.8768 0.00195312H14.1273C13.697 0.00195312 13.3227 0.294891 13.2183 0.711453L12.8357 2.3027C11.3252 2.6487 9.88984 3.24464 8.55522 4.07764L7.20134 3.2712C6.83247 3.05145 6.36191 3.11102 6.05891 3.41402L3.41597 6.05677C3.11297 6.35977 3.05347 6.83027 3.27316 7.1992L4.07959 8.55308C3.24659 9.8877 2.65066 11.3231 2.30466 12.8335L0.713406 13.2161C0.296906 13.3205 0.00390625 13.6949 0.00390625 14.1251V17.8746C0.00390625 18.3049 0.296844 18.6802 0.714281 18.7836L2.30553 19.1663C2.53622 20.1671 2.88341 21.1287 3.32928 22.051C4.01772 21.3597 7.47534 17.8873 7.72384 17.6391C7.71159 17.576 7.57766 16.3753 7.57409 16.1414C7.49434 11.3647 11.3418 7.56433 16.0056 7.56433C20.7013 7.56433 24.4458 11.3507 24.4281 16.0291C24.408 20.3558 21.1787 24.0392 16.6684 24.3761C16.4733 24.3911 15.5912 24.5212 14.3616 24.2788L9.96216 28.6783C10.8809 29.1215 11.8388 29.4664 12.8356 29.6962L13.2182 31.2884C13.3226 31.7049 13.697 31.9979 14.1272 31.9979H17.8767C18.307 31.9979 18.6813 31.705 18.7857 31.2884L19.1683 29.6971C20.6788 29.3511 22.1142 28.7552 23.4488 27.9222L24.8027 28.7286C25.1697 28.9484 25.6412 28.888 25.9451 28.5858L28.5879 25.943C28.8909 25.64 28.9504 25.1695 28.7307 24.8006L27.9243 23.4467C28.7582 22.1121 29.3532 20.6767 29.6992 19.1653L31.2895 18.7836C31.707 18.6802 31.9999 18.3049 31.9999 17.8746V14.1251C31.9999 13.695 31.707 13.3205 31.2905 13.2162Z" fill="#5E6F9C"/>
<path d="M22.3449 14.2862C22.2626 13.9634 22.0134 13.7095 21.6921 13.6215C21.3709 13.5334 21.0277 13.6252 20.7922 13.8607L18.6531 15.9999C17.9219 16.7311 16.7333 16.7311 16.002 15.9999C15.2715 15.2694 15.2715 14.0794 16.002 13.3488L18.142 11.2088C18.3775 10.9733 18.4685 10.6296 18.3804 10.3085C18.2923 9.98746 18.0387 9.7379 17.716 9.6559C13.7607 8.65071 10.2012 11.2272 9.54836 14.7851C9.33873 15.9568 9.43211 17.124 9.81561 18.1987C9.28223 18.7321 1.04386 26.9703 0.822419 27.1919C-0.277018 28.2913 -0.277018 30.08 0.839794 31.1968C1.94617 32.2456 3.64061 32.2897 4.80992 31.1795L13.8032 22.1862C15.2434 22.7002 16.8495 22.6898 18.4214 22.1352C21.2535 21.1358 23.2357 17.7818 22.3449 14.2862Z" fill="#5E6F9C"/>
</g>
<defs>
<clipPath id="clip0_107_325">
<rect width="32" height="32" fill="white"/>
</clipPath>
</defs>
</svg>
