<svg width="28" height="29" viewBox="0 0 28 29" fill="none" xmlns="http://www.w3.org/2000/svg">
<path d="M24.9603 0.703125H15.1351C14.5133 0.703125 13.9161 0.950689 13.4761 1.39067L0.687254 14.1772C-0.229085 15.0935 -0.229085 16.5789 0.687254 17.4964L10.5124 27.3215C11.4287 28.2379 12.9141 28.2379 13.8304 27.3215L26.6193 14.535C27.0593 14.0939 27.3068 13.4967 27.3068 12.8737V3.0497C27.3068 1.75322 26.2567 0.703125 24.9603 0.703125ZM20.8538 8.91615C19.8823 8.91615 19.0938 8.1277 19.0938 7.15622C19.0938 6.18473 19.8823 5.39628 20.8538 5.39628C21.8252 5.39628 22.6137 6.18473 22.6137 7.15622C22.6137 8.1277 21.8252 8.91615 20.8538 8.91615Z" fill="#5E6F9C"/>
</svg>
