<svg width="32" height="32" viewBox="0 0 32 32" fill="none" xmlns="http://www.w3.org/2000/svg">
<g clip-path="url(#clip0_107_320)">
<path d="M25.375 13.1875H17.6159L24.3139 1.40258C24.4797 1.1123 24.4787 0.756101 24.3112 0.466796C24.1428 0.177734 23.8342 0 23.5 0H12.25C11.8464 0 11.4883 0.2583 11.3611 0.640867L5.7361 17.5783C5.63991 17.864 5.68849 18.1789 5.86427 18.4233C6.04103 18.6679 6.32399 18.8124 6.62501 18.8124H14.5784L9.51368 30.6935C9.33228 31.1156 9.48438 31.6073 9.87256 31.8534C10.2544 32.0976 10.7673 32.0334 11.0754 31.6852L26.0754 14.7478C26.3208 14.4721 26.3813 14.0774 26.2302 13.7414C26.0791 13.4045 25.7441 13.1875 25.375 13.1875Z" fill="#5E6F9C"/>
</g>
<defs>
<clipPath id="clip0_107_320">
<rect width="32" height="32" fill="white"/>
</clipPath>
</defs>
</svg>
