<svg width="28" height="30" viewBox="0 0 28 30" fill="none" xmlns="http://www.w3.org/2000/svg">
<path d="M24.2 2.50677L14.8667 0.426768C14.2952 0.306637 13.7049 0.306637 13.1334 0.426768L3.80002 2.50677C2.91108 2.70406 2.11605 3.19875 1.54633 3.90908C0.976614 4.61941 0.666305 5.50286 0.666689 6.41343V11.8401C0.6499 15.6245 1.77808 19.3255 3.90306 22.4571C6.02804 25.5886 9.05045 28.0043 12.5734 29.3868C13.026 29.5727 13.5107 29.6678 14 29.6668C14.4879 29.6656 14.9714 29.5752 15.4267 29.4001C18.9485 28.0121 21.9693 25.5933 24.0938 22.4602C26.2182 19.327 27.3473 15.6255 27.3334 11.8401V6.41343C27.3337 5.50286 27.0234 4.61941 26.4537 3.90908C25.884 3.19875 25.089 2.70406 24.2 2.50677ZM20.3334 12.0134L13.92 18.3201C13.6702 18.5684 13.3323 18.7078 12.98 18.7078C12.6278 18.7078 12.2898 18.5684 12.04 18.3201L9.00002 15.3334C8.87505 15.2095 8.77586 15.062 8.70817 14.8995C8.64048 14.7371 8.60562 14.5628 8.60562 14.3868C8.60562 14.2108 8.64048 14.0365 8.70817 13.874C8.77586 13.7115 8.87505 13.5641 9.00002 13.4401C9.24984 13.1918 9.58777 13.0524 9.94002 13.0524C10.2923 13.0524 10.6302 13.1918 10.88 13.4401L12.9867 15.5068L18.4667 10.1734C18.5919 10.05 18.7402 9.95242 18.9031 9.88628C19.066 9.82014 19.2403 9.78674 19.4161 9.78798C19.5919 9.78922 19.7658 9.82507 19.9277 9.8935C20.0897 9.96192 20.2366 10.0616 20.36 10.1868C20.4835 10.312 20.581 10.4602 20.6472 10.6231C20.7133 10.786 20.7467 10.9604 20.7455 11.1362C20.7442 11.312 20.7084 11.4859 20.64 11.6478C20.5715 11.8098 20.4719 11.9567 20.3467 12.0801L20.3334 12.0134Z" fill="#5E6F9C"/>
</svg>
