<svg width="33" height="32" viewBox="0 0 33 32" fill="none" xmlns="http://www.w3.org/2000/svg">
<path d="M21.8726 16.5125H32.5V14.2719C32.5 13.8813 32.258 13.5312 31.8924 13.3938L17.4357 7.967V5.625H22.5744C23.0909 5.625 23.5101 5.205 23.5101 4.6875V1.5625C23.5101 1.045 23.0909 0.625 22.5744 0.625H17.3813C17.2526 0.26125 16.907 0 16.5 0C15.9835 0 15.5643 0.42 15.5643 0.9375V7.96681L1.1275 13.3862L1.10694 13.3944C0.742 13.5312 0.5 13.8813 0.5 14.2719V16.5125H11.1274C11.7038 16.5125 12.1709 16.9806 12.1709 17.5581C12.1709 18.135 11.7037 18.6031 11.1274 18.6031H1.81369V31.0625C1.81369 31.58 2.23288 32 2.74938 32H5.53331V23.1694C5.53331 21.6181 6.79212 20.3569 8.34031 20.3569H8.34781C9.89544 20.3569 11.1548 21.6181 11.1548 23.1694V32H13.6581V21.9006C13.6581 20.35 14.9169 19.0881 16.4651 19.0881H16.4726C18.0208 19.0881 19.2796 20.35 19.2796 21.9006V32H21.8452V23.1694C21.8452 21.6181 23.1046 20.3569 24.6522 20.3569H24.6597C26.2079 20.3569 27.4667 21.6181 27.4667 23.1694V32H30.2506C30.7671 32 31.1863 31.58 31.1863 31.0625V18.6031H21.8726C21.2949 18.6031 20.8291 18.1334 20.8291 17.5581C20.8291 16.9806 21.2962 16.5125 21.8726 16.5125ZM16.5 14.9087C14.9499 14.9087 13.6892 13.6469 13.6892 12.0962C13.6892 10.545 14.9499 9.28375 16.5 9.28375C18.0501 9.28375 19.3107 10.545 19.3107 12.0962C19.3107 13.6469 18.0501 14.9087 16.5 14.9087Z" fill="#5E6F9C"/>
</svg>
