<svg width="33" height="32" viewBox="0 0 33 32" fill="none" xmlns="http://www.w3.org/2000/svg">
<path d="M1.4375 30.125C0.919312 30.125 0.5 30.5443 0.5 31.0625C0.5 31.5807 0.919312 32 1.4375 32H5.1875C5.70569 32 6.125 31.5807 6.125 31.0625C6.125 30.5443 5.70569 30.125 5.1875 30.125H4.25V24.2391C5.4385 25.2859 7.33031 26.3125 9.9375 26.3125C12.5447 26.3125 14.374 25.2859 15.5625 24.2391V30.125H14.625C14.1068 30.125 13.6875 30.5443 13.6875 31.0625C13.6875 31.5807 14.1068 32 14.625 32H18.375C18.8932 32 19.3125 31.5807 19.3125 31.0625C19.3125 30.5443 18.8932 30.125 18.375 30.125H17.4375V24.2391C18.626 25.2859 20.4553 26.3125 23.0625 26.3125C25.6697 26.3125 27.5615 25.2859 28.75 24.2391V30.125H27.8125C27.2943 30.125 26.875 30.5443 26.875 31.0625C26.875 31.5807 27.2943 32 27.8125 32H31.5625C32.0807 32 32.5 31.5807 32.5 31.0625C32.5 30.5443 32.0807 30.125 31.5625 30.125H30.625V20.5148C31.7139 20.1265 32.5 19.0956 32.5 17.875C32.5 16.3241 31.2384 15.0625 29.6875 15.0625C28.1366 15.0625 26.875 16.3241 26.875 17.875C26.875 19.0956 27.6611 20.1265 28.75 20.5148V21.376C28.3491 22.0351 26.5857 24.4375 23.0625 24.4375C19.5414 24.4375 17.8498 22.0603 17.4375 21.3791V20.5148C18.5264 20.1265 19.3125 19.0956 19.3125 17.875C19.3125 16.3241 18.0509 15.0625 16.5 15.0625C14.9491 15.0625 13.6875 16.3241 13.6875 17.875C13.6875 19.0956 14.4736 20.1265 15.5625 20.5148V21.376C15.1616 22.0351 13.4607 24.4375 9.9375 24.4375C6.41638 24.4375 4.66231 22.0603 4.25 21.3791V20.5148C5.33887 20.1265 6.125 19.0956 6.125 17.875C6.125 16.3241 4.86337 15.0625 3.3125 15.0625C1.76163 15.0625 0.5 16.3241 0.5 17.875C0.5 19.0956 1.28612 20.1265 2.375 20.5148V30.125H1.4375Z" fill="#5E6F9C"/>
<path d="M1.4375 13.1875H14.625C15.1432 13.1875 15.5625 12.7682 15.5625 12.25V0.9375C15.5625 0.419312 15.1432 0 14.625 0H1.4375C0.919312 0 0.5 0.419312 0.5 0.9375V12.25C0.5 12.7682 0.919312 13.1875 1.4375 13.1875Z" fill="#5E6F9C"/>
<path d="M18.375 13.1875H31.5625C32.0807 13.1875 32.5 12.7682 32.5 12.25V0.9375C32.5 0.419312 32.0807 0 31.5625 0H18.375C17.8568 0 17.4375 0.419312 17.4375 0.9375V12.25C17.4375 12.7682 17.8568 13.1875 18.375 13.1875Z" fill="#5E6F9C"/>
</svg>
