<svg width="27" height="32" viewBox="0 0 27 32" fill="none" xmlns="http://www.w3.org/2000/svg">
<path d="M26.4623 1.41228C26.4623 1.16447 26.3638 0.926844 26.1887 0.751719L25.7106 0.273656C25.3457 -0.0912813 24.7542 -0.0911562 24.3894 0.273656C24.0879 0.575219 24.0356 1.03153 24.2325 1.38672L7.87746 17.7417C7.55209 18.0671 7.51771 18.5723 7.77272 18.9367L7.36009 19.4149C7.21009 19.5887 7.1679 19.831 7.25034 20.0453C7.34572 20.2933 7.28597 20.575 7.09809 20.7628L5.74153 22.1195L4.66222 22.7191C4.59822 22.7546 4.54097 22.8012 4.49309 22.8567L1.03003 26.8706C0.335903 27.6753 0.380715 28.8942 1.13209 29.6456C1.13209 29.6456 2.83765 31.3511 2.83897 31.3524C3.98897 32.5024 6.00834 32.0543 6.56772 30.5316C7.47447 28.0633 8.52734 25.6276 9.70628 23.2686C9.84703 23.4095 10.0315 23.505 10.2362 23.5339L12.1344 23.8027C12.1782 23.8089 12.2219 23.812 12.2655 23.812C12.5114 23.812 12.7496 23.7148 12.926 23.5383L13.7794 22.685C14.8708 21.5935 14.8708 19.8176 13.7794 18.7262C13.7743 18.7211 13.7688 18.7169 13.7637 18.712L19.6653 12.8104C19.8842 12.5916 19.9805 12.2785 19.9223 11.9745L19.3391 8.92228L26.1887 2.07291C26.3639 1.89766 26.4623 1.66003 26.4623 1.41228ZM12.4582 21.3638L12.004 21.818C11.985 21.6078 11.8951 21.4027 11.7342 21.2418C11.6457 21.1532 11.5435 21.0866 11.4347 21.041L12.4441 20.0317C12.449 20.0368 12.4532 20.0423 12.4582 20.0473C12.8212 20.4103 12.8212 21.0009 12.4582 21.3638Z" fill="#5E6F9C"/>
</svg>
