<svg width="33" height="32" viewBox="0 0 33 32" fill="none" xmlns="http://www.w3.org/2000/svg">
<path d="M31.5625 30.125H1.4375C0.91975 30.125 0.5 30.5447 0.5 31.0625C0.5 31.5803 0.91975 32 1.4375 32H31.5625C32.0802 32 32.5 31.5803 32.5 31.0625C32.5 30.5447 32.0802 30.125 31.5625 30.125Z" fill="#5E6F9C"/>
<path d="M7.52908 24.0335C7.52908 23.5158 7.94883 23.096 8.46658 23.096H16.4999C17.0176 23.096 17.4374 23.5158 17.4374 24.0335V28.2502H21.4541V25.0377C21.4541 20.0748 17.4379 16.0669 12.4833 16.0669C7.52045 16.0669 3.51245 20.0844 3.51245 25.0377V28.2502H7.52914V24.0335H7.52908Z" fill="#5E6F9C"/>
<path d="M9.4043 24.9707H15.5626V28.2499H9.4043V24.9707Z" fill="#5E6F9C"/>
<path d="M28.9384 10.0417L25.4709 6.57425V5.89169H28.55C29.0678 5.89169 29.4875 5.47194 29.4875 4.95419V0.9375C29.4875 0.41975 29.0678 0 28.55 0H24.5334C24.0156 0 23.5959 0.41975 23.5959 0.9375V6.57425L20.1284 10.0417H28.9384Z" fill="#5E6F9C"/>
<path d="M29.4875 28.2498V17.9414H26.2868L24.5334 19.6948L22.78 17.9414H20.6887C21.3274 18.6783 21.7407 19.3527 21.9886 19.8016L23.2076 21.0207L22.7387 21.4895C22.9775 22.1829 23.1462 22.9025 23.2402 23.6396L24.5334 22.3464L26.2201 24.0331L24.5334 25.7198L23.3163 24.5027C23.3249 24.6801 23.3293 24.8583 23.3293 25.0372V28.2498H27.0634L25.8592 27.0456L27.6125 25.2923V28.2498H29.4875ZM25.8592 21.0207L27.6125 19.2673V22.7739L25.8592 21.0207Z" fill="#5E6F9C"/>
<path d="M19.5791 11.9165H29.4874V16.0664H19.5791V11.9165Z" fill="#5E6F9C"/>
</svg>
