<svg width="28" height="32" viewBox="0 0 28 32" fill="none" xmlns="http://www.w3.org/2000/svg">
<path d="M25.9997 8.00013C25.9997 4.69884 27.1837 3.08685 27.1944 3.07485C27.3997 2.80953 27.3757 2.43216 27.1384 2.19485L25.1384 0.194862C24.9291 -0.0144491 24.6064 -0.0598239 24.3477 0.0815503C24.3237 0.0935502 22.0211 1.33354 19.3331 1.33354C16.6598 1.33354 14.3411 0.0935502 14.3184 0.0815503C14.1197 -0.0251366 13.8784 -0.0264491 13.6811 0.0815503C13.6571 0.0935502 11.3544 1.33354 8.66646 1.33354C5.99316 1.33354 3.67449 0.0935502 3.6518 0.0815503C3.39311 -0.0584489 3.07049 -0.0131366 2.86249 0.196237L0.862503 2.19623C0.627817 2.43091 0.603817 2.80691 0.803816 3.07222C0.815816 3.08822 1.99981 4.70021 1.99981 8.0015C1.99981 9.5015 1.75712 10.5415 1.47581 11.7455C1.09581 13.3708 0.666504 15.2135 0.666504 18.6681C0.666504 25.0014 5.59179 27.9041 13.7037 31.9321C13.7971 31.9761 13.8984 32.0001 13.9997 32.0001C14.1011 32.0001 14.2024 31.9761 14.2957 31.9307C22.4077 27.9028 27.333 25.0001 27.333 18.6668C27.333 15.2108 26.9023 13.3695 26.5237 11.7442C26.2437 10.5414 25.9997 9.5015 25.9997 8.00013ZM21.1384 13.8054L18.0718 16.8721L19.2705 21.6667C19.3278 21.7654 19.3598 21.8787 19.3598 22C19.3598 22.3734 18.9931 22.6934 18.6798 22.6667H18.6665C18.5532 22.6667 18.4385 22.6374 18.3358 22.5787L13.9998 20.1014L9.66383 22.5787C9.43183 22.7107 9.14383 22.692 8.93052 22.5307C8.71721 22.3694 8.62121 22.0974 8.68652 21.8374L9.92782 16.8695L6.86115 13.8028C6.68247 13.6241 6.61984 13.3601 6.69984 13.1201C6.77984 12.8801 6.98784 12.7068 7.23715 12.6708L11.5331 12.0575L13.3864 7.73482C13.5957 7.24413 14.4024 7.24413 14.6117 7.73482L16.465 12.0575L20.761 12.6708C21.0117 12.7068 21.2197 12.8801 21.2983 13.1201C21.3784 13.3614 21.3158 13.6268 21.1384 13.8054Z" fill="#5E6F9C"/>
</svg>
