<svg width="33" height="32" viewBox="0 0 33 32" fill="none" xmlns="http://www.w3.org/2000/svg">
<g clip-path="url(#clip0_75_1443)">
<path d="M31.3345 30.1251H28.2018V7.11324C28.2018 3.19099 25.0108 0 21.0886 0H11.9234C8.00125 0 4.81026 3.19099 4.81026 7.11324V30.1252H1.66589C1.1482 30.1252 0.728516 30.5449 0.728516 31.0626C0.728516 31.5803 1.1482 31.9999 1.66589 31.9999H5.74182C6.13126 31.9999 6.46507 31.7624 6.60669 31.4244C6.65682 31.3096 6.68507 31.183 6.68507 31.0498V7.11324C6.68507 4.22474 9.035 1.87481 11.9234 1.87481H21.0886C23.977 1.87481 26.327 4.22474 26.327 7.11324V30.9604C26.3233 30.994 26.3212 31.028 26.3212 31.0626C26.3212 31.5803 26.7408 31.9999 27.2585 31.9999H31.3345C31.8521 31.9999 32.2718 31.5803 32.2718 31.0626C32.2718 30.5449 31.8523 30.1251 31.3345 30.1251Z" fill="#5E6F9C"/>
<path d="M21.0452 3.76904H11.9667C10.1515 3.76904 8.6748 5.24579 8.6748 7.06091V30.7826C8.6748 31.4469 9.21524 31.9874 9.87955 31.9874H23.1325C23.7968 31.9874 24.3372 31.4469 24.3372 30.7826V7.06091C24.3371 5.24573 22.8604 3.76904 21.0452 3.76904ZM20.3497 18.8156H18.2529C17.7352 18.8156 17.3155 18.3959 17.3155 17.8782C17.3155 17.3605 17.7352 16.9408 18.2529 16.9408H20.3497C20.8674 16.9408 21.2871 17.3605 21.2871 17.8782C21.2871 18.3959 20.8674 18.8156 20.3497 18.8156Z" fill="#5E6F9C"/>
</g>
<defs>
<clipPath id="clip0_75_1443">
<rect width="32" height="32" fill="white" transform="translate(0.5)"/>
</clipPath>
</defs>
</svg>
