<svg width="33" height="32" viewBox="0 0 33 32" fill="none" xmlns="http://www.w3.org/2000/svg">
<g clip-path="url(#clip0_75_1452)">
<path d="M28.3176 8.25712C30.593 8.25712 32.4375 6.4087 32.4375 4.12856C32.4375 1.84842 30.593 0 28.3176 0C26.0423 0 24.1978 1.84842 24.1978 4.12856C24.1978 6.4087 26.0423 8.25712 28.3176 8.25712Z" fill="#5E6F9C"/>
<path d="M22.9624 23.1475H25.6127V25.8033H22.9624V23.1475Z" fill="#5E6F9C"/>
<path d="M18.1381 8.70253C18.6522 8.24553 19.3137 7.9939 20.0008 7.9939C20.688 7.9939 21.3495 8.24559 21.8636 8.70253L22.6023 9.35915V7.01309C22.6023 3.15115 19.467 0.00927734 15.6131 0.00927734C12.2373 0.00927734 9.41297 2.42009 8.76416 5.61384C9.82535 7.22903 11.6851 10.3862 12.4805 13.7319L18.1381 8.70253Z" fill="#5E6F9C"/>
<path d="M31.5643 30.1128H30.272V21.1912L30.881 21.7326C31.0591 21.891 31.2808 21.9688 31.5016 21.9688C31.7599 21.9688 32.017 21.8622 32.2019 21.6533C32.5448 21.266 32.5094 20.6733 32.1228 20.3297L29.3799 17.8914V13.032C29.3799 12.5142 28.9609 12.0944 28.4442 12.0944C27.9274 12.0944 27.5085 12.5142 27.5085 13.032V16.2278L20.6215 10.1056C20.2672 9.79066 19.7339 9.79066 19.3797 10.1056L7.87844 20.3297C7.49188 20.6733 7.4565 21.2659 7.79938 21.6533C8.14231 22.0407 8.73375 22.0761 9.12025 21.7325L9.72925 21.1911V30.1127H6.7095V26.0221C7.10919 25.8997 7.49381 25.6987 7.858 25.4231V23.7695C7.29869 23.6378 6.78731 23.3358 6.39956 22.8978C5.3725 21.7376 5.47881 19.9562 6.63656 18.9269L10.8598 15.1727C10.1489 10.628 6.68981 5.88966 6.52644 5.66804C6.35 5.42879 6.07075 5.2876 5.77388 5.2876C5.477 5.2876 5.19775 5.42879 5.02131 5.66804C4.83913 5.9151 0.560187 11.7757 0.560187 16.7233C0.560187 19.1381 1.04075 21.4231 1.91338 23.1573C2.68313 24.6872 3.69956 25.674 4.83819 26.0222V30.1128H1.43569C0.918938 30.1128 0.5 30.5327 0.5 31.0505C0.5 31.5683 0.918938 31.9881 1.43569 32.0001H30.2721H31.5644C32.0811 31.9881 32.5001 31.5683 32.5001 31.0505C32.5001 30.5327 32.0811 30.1128 31.5643 30.1128ZM21.0909 22.2101C21.0909 21.6923 21.5098 21.2725 22.0266 21.2725H26.5483C27.065 21.2725 27.4839 21.6923 27.4839 22.2101V26.7413C27.4839 27.2591 27.065 27.6789 26.5483 27.6789H22.0266C21.5098 27.6789 21.0909 27.2591 21.0909 26.7413V22.2101ZM15.9672 30.1128V23.1477H14.0958V30.1128H12.2245V22.2101C12.2245 21.6922 12.6434 21.2725 13.1602 21.2725H16.9029C17.4196 21.2725 17.8386 21.6923 17.8386 22.2101V30.1128H15.9672Z" fill="#5E6F9C"/>
</g>
<defs>
<clipPath id="clip0_75_1452">
<rect width="32" height="32" fill="white" transform="translate(0.5)"/>
</clipPath>
</defs>
</svg>
