<svg width="33" height="32" viewBox="0 0 33 32" fill="none" xmlns="http://www.w3.org/2000/svg">
<path d="M4.90694 20.9405C4.65569 20.3479 4.51662 19.6966 4.51662 19.0134C4.51662 16.2802 6.73862 14.0582 9.46981 14.0582H23.5301C26.2613 14.0582 28.4832 16.2802 28.4832 19.0113V19.0134C28.4832 19.6966 28.3442 20.348 28.0929 20.9407C29.6256 19.8335 30.625 18.0318 30.625 16.0009V15.9989C30.625 12.6405 27.8927 9.9082 24.5343 9.9082H8.46569C5.10725 9.9082 2.375 12.6405 2.375 15.9989C2.375 18.031 3.37438 19.8331 4.90694 20.9405Z" fill="#5E6F9C"/>
<path d="M9.46979 15.9331C7.77248 15.9331 6.3916 17.3149 6.3916 19.0133C6.3916 20.7106 7.77248 22.0914 9.46979 22.0914H23.5301C25.2274 22.0914 26.6082 20.7105 26.6082 19.0112C26.6082 17.3139 25.2274 15.9331 23.5301 15.9331H9.46979Z" fill="#5E6F9C"/>
<path d="M6.3916 5.89169H10.4749C10.7999 5.89169 11.1016 5.72344 11.2724 5.44706C11.4432 5.17069 11.4587 4.82556 11.3135 4.53494L10.5189 2.94587L11.3135 1.35681C11.4588 1.06619 11.4432 0.721062 11.2724 0.444687C11.1016 0.16825 10.7999 0 10.4749 0H5.4541C4.93635 0 4.5166 0.41975 4.5166 0.9375V9.08313C5.09954 8.74894 5.72866 8.48675 6.3916 8.30781V5.89169Z" fill="#5E6F9C"/>
<path d="M15.4292 5.89169H19.5125C19.8374 5.89169 20.1392 5.72344 20.31 5.44706C20.4808 5.17069 20.4963 4.82556 20.3511 4.53494L19.5565 2.94587L20.3511 1.35681C20.4964 1.06619 20.4808 0.721062 20.31 0.444687C20.1392 0.16825 19.8374 0 19.5125 0H14.4917C13.9739 0 13.5542 0.41975 13.5542 0.9375V8.03331H15.4292V5.89169Z" fill="#5E6F9C"/>
<path d="M24.4668 5.89169H28.5501C28.875 5.89169 29.1768 5.72344 29.3476 5.44706C29.5184 5.17069 29.5339 4.82556 29.3887 4.53494L28.5942 2.94587L29.3887 1.35681C29.534 1.06619 29.5184 0.721062 29.3476 0.444687C29.1768 0.16825 28.875 0 28.5501 0H23.5293C23.0115 0 22.5918 0.41975 22.5918 0.9375V8.03331H24.4668V5.89169Z" fill="#5E6F9C"/>
<path d="M14.425 27.9834H18.575V32.0001H14.425V27.9834Z" fill="#5E6F9C"/>
<path d="M24.5343 23.9667H8.46569C4.07337 23.9667 0.5 20.3932 0.5 16.001V23.0292C0.5 27.9909 4.51575 32 9.47081 32H12.55V27.0458C12.55 26.528 12.9698 26.1083 13.4875 26.1083H19.5125C20.0303 26.1083 20.45 26.528 20.45 27.0458V32H23.5292C28.4909 32 32.5 27.9842 32.5 23.0292V16.001C32.5 20.3932 28.9266 23.9667 24.5343 23.9667Z" fill="#5E6F9C"/>
</svg>
