<svg width="32" height="32" viewBox="0 0 32 32" fill="none" xmlns="http://www.w3.org/2000/svg">
<path d="M24 11.2V0H8.00002V11.2H0V31.9999H8.00002H8.96002H12.8V24H19.2V32H23.84H24H32V11.2H24ZM6.39997 24H3.20002V20.8H6.40004V24H6.39997ZM6.39997 17.6H3.20002V14.4H6.40004V17.6H6.39997ZM12.8 17.6H9.59999V14.4H12.8V17.6ZM17.6 9.59999V12.8H14.4V9.59999H11.2V6.39997H14.4V3.20002H17.6V6.40004H20.8V9.59999H17.6ZM22.4 17.6H19.2V14.4H22.4V17.6ZM28.8 24H25.6V20.8H28.8V24ZM28.8 17.6H25.6V14.4H28.8V17.6Z" fill="#5E6F9C"/>
</svg>
