<svg width="33" height="32" viewBox="0 0 33 32" fill="none" xmlns="http://www.w3.org/2000/svg">
<path d="M0.667699 31.5976C0.842573 31.8494 1.13001 32.0004 1.43763 32.0004H31.5623C31.8699 32.0004 32.1574 31.8494 32.3323 31.5976C32.508 31.3449 32.5483 31.0227 32.4403 30.7343C32.075 29.7574 31.3921 28.9005 31.1146 28.5782C30.937 28.3704 30.677 28.2505 30.4033 28.2505H2.59669C2.32295 28.2505 2.06295 28.3704 1.88532 28.5782C1.60795 28.9005 0.924948 29.7574 0.559636 30.7343C0.451636 31.0227 0.491886 31.3449 0.667699 31.5976Z" fill="#5E6F9C"/>
<path d="M4.25 15.0625H9.9375V26.375H4.25V15.0625Z" fill="#5E6F9C"/>
<path d="M13.6875 15.0625H19.3125V26.375H13.6875V15.0625Z" fill="#5E6F9C"/>
<path d="M23.0625 15.0625H28.75V26.375H23.0625V15.0625Z" fill="#5E6F9C"/>
<path d="M2.52918 12.9119C2.70518 13.0886 2.95012 13.188 3.19237 13.188C3.19249 13.188 3.19268 13.1879 3.19281 13.1879C3.19293 13.1879 3.19312 13.188 3.19324 13.1874H29.8067C29.8068 13.188 29.807 13.1879 29.8071 13.1879C29.8073 13.1879 29.8074 13.188 29.8076 13.188C30.0498 13.188 30.2948 13.0887 30.4708 12.9119C30.6615 12.7212 32.0871 11.2365 32.4999 9.43799H0.5C0.912812 11.2365 2.33837 12.7212 2.52918 12.9119Z" fill="#5E6F9C"/>
<path d="M31.9033 7.56297L16.9193 0.0993477C16.6556 -0.0324648 16.3444 -0.0324648 16.0807 0.0993477L1.09668 7.56297H31.9033Z" fill="#5E6F9C"/>
</svg>
