<svg width="33" height="32" viewBox="0 0 33 32" fill="none" xmlns="http://www.w3.org/2000/svg">
<g clip-path="url(#clip0_75_1360)">
<path d="M32.3199 10.4199L27.3199 3.42C27.1199 3.16 26.8199 3 26.4999 3H6.50011C6.18011 3 5.88011 3.16 5.68011 3.42L0.680163 10.4199C0.620164 10.5999 0.560164 10.7799 0.500165 10.9599C0.480165 13.1799 2.28015 14.9999 4.50013 14.9999C5.70011 14.9999 6.7601 14.4799 7.5001 13.6399C8.24009 14.4799 9.30008 14.9999 10.5001 14.9999C11.7001 14.9999 12.76 14.4799 13.5 13.6399C14.24 14.4799 15.3 14.9999 16.5 14.9999C17.7 14.9999 18.76 14.4799 19.5 13.6399C20.24 14.4799 21.3 14.9999 22.4999 14.9999C23.6999 14.9999 24.7599 14.4799 25.4999 13.6399C26.2399 14.4799 27.2999 14.9999 28.4999 14.9999C30.7199 14.9999 32.5199 13.1799 32.4999 10.9599C32.4399 10.7799 32.3799 10.5999 32.3199 10.4199Z" fill="#5E6F9C"/>
<path d="M28.4997 16.9999C27.4378 16.9999 26.4038 16.7159 25.4998 16.1919C23.6918 17.2379 21.3078 17.2379 19.4998 16.1919C17.6919 17.2379 15.3059 17.2379 13.4999 16.1919C11.6939 17.2379 9.30593 17.2379 7.49995 16.1919C5.99797 17.0639 4.13798 17.1759 2.5 16.6099V26.9998C2.5 28.1038 3.39599 28.9998 4.49998 28.9998H20.4998V18.9999H26.4998V28.9998H28.4997C29.6037 28.9998 30.4997 28.1038 30.4997 26.9998V16.6339C29.8637 16.8599 29.1937 16.9999 28.4997 16.9999ZM14.4999 24.9998H6.49996V18.9999H14.4999V24.9998Z" fill="#5E6F9C"/>
</g>
<defs>
<clipPath id="clip0_75_1360">
<rect width="32" height="32" fill="white" transform="translate(0.5)"/>
</clipPath>
</defs>
</svg>
