<svg width="33" height="32" viewBox="0 0 33 32" fill="none" xmlns="http://www.w3.org/2000/svg">
<path d="M12.4999 22.6668H20.4999V30.6668H12.4999V22.6668ZM31.1666 29.3335C31.1666 29.6871 31.0261 30.0263 30.7761 30.2763C30.526 30.5264 30.1869 30.6668 29.8333 30.6668H23.1666V21.3335C23.1666 20.9799 23.0261 20.6407 22.7761 20.3907C22.526 20.1406 22.1869 20.0002 21.8333 20.0002H11.1666C10.813 20.0002 10.4738 20.1406 10.2238 20.3907C9.97373 20.6407 9.83325 20.9799 9.83325 21.3335V30.6668H3.16659C2.81296 30.6668 2.47382 30.5264 2.22378 30.2763C1.97373 30.0263 1.83325 29.6871 1.83325 29.3335C1.83325 28.9799 1.97373 28.6407 2.22378 28.3907C2.47382 28.1406 2.81296 28.0002 3.16659 28.0002H4.49992V2.66683C4.49992 2.31321 4.64039 1.97407 4.89044 1.72402C5.14049 1.47397 5.47963 1.3335 5.83325 1.3335H27.1666C27.5202 1.3335 27.8593 1.47397 28.1094 1.72402C28.3594 1.97407 28.4999 2.31321 28.4999 2.66683V28.0002H29.8333C30.1869 28.0002 30.526 28.1406 30.7761 28.3907C31.0261 28.6407 31.1666 28.9799 31.1666 29.3335ZM12.4999 13.3335C12.4999 12.9799 12.3594 12.6407 12.1094 12.3907C11.8593 12.1406 11.5202 12.0002 11.1666 12.0002C10.813 12.0002 10.4738 12.1406 10.2238 12.3907C9.97373 12.6407 9.83325 12.9799 9.83325 13.3335V14.6668C9.83325 15.0205 9.97373 15.3596 10.2238 15.6096C10.4738 15.8597 10.813 16.0002 11.1666 16.0002C11.5202 16.0002 11.8593 15.8597 12.1094 15.6096C12.3594 15.3596 12.4999 15.0205 12.4999 14.6668V13.3335ZM12.4999 6.66683C12.4999 6.31321 12.3594 5.97407 12.1094 5.72402C11.8593 5.47397 11.5202 5.3335 11.1666 5.3335C10.813 5.3335 10.4738 5.47397 10.2238 5.72402C9.97373 5.97407 9.83325 6.31321 9.83325 6.66683V8.00016C9.83325 8.35379 9.97373 8.69292 10.2238 8.94297C10.4738 9.19302 10.813 9.3335 11.1666 9.3335C11.5202 9.3335 11.8593 9.19302 12.1094 8.94297C12.3594 8.69292 12.4999 8.35379 12.4999 8.00016V6.66683ZM17.8333 13.3335C17.8333 12.9799 17.6928 12.6407 17.4427 12.3907C17.1927 12.1406 16.8535 12.0002 16.4999 12.0002C16.1463 12.0002 15.8072 12.1406 15.5571 12.3907C15.3071 12.6407 15.1666 12.9799 15.1666 13.3335V14.6668C15.1666 15.0205 15.3071 15.3596 15.5571 15.6096C15.8072 15.8597 16.1463 16.0002 16.4999 16.0002C16.8535 16.0002 17.1927 15.8597 17.4427 15.6096C17.6928 15.3596 17.8333 15.0205 17.8333 14.6668V13.3335ZM17.8333 6.66683C17.8333 6.31321 17.6928 5.97407 17.4427 5.72402C17.1927 5.47397 16.8535 5.3335 16.4999 5.3335C16.1463 5.3335 15.8072 5.47397 15.5571 5.72402C15.3071 5.97407 15.1666 6.31321 15.1666 6.66683V8.00016C15.1666 8.35379 15.3071 8.69292 15.5571 8.94297C15.8072 9.19302 16.1463 9.3335 16.4999 9.3335C16.8535 9.3335 17.1927 9.19302 17.4427 8.94297C17.6928 8.69292 17.8333 8.35379 17.8333 8.00016V6.66683ZM23.1666 13.3335C23.1666 12.9799 23.0261 12.6407 22.7761 12.3907C22.526 12.1406 22.1869 12.0002 21.8333 12.0002C21.4796 12.0002 21.1405 12.1406 20.8904 12.3907C20.6404 12.6407 20.4999 12.9799 20.4999 13.3335V14.6668C20.4999 15.0205 20.6404 15.3596 20.8904 15.6096C21.1405 15.8597 21.4796 16.0002 21.8333 16.0002C22.1869 16.0002 22.526 15.8597 22.7761 15.6096C23.0261 15.3596 23.1666 15.0205 23.1666 14.6668V13.3335ZM23.1666 6.66683C23.1666 6.31321 23.0261 5.97407 22.7761 5.72402C22.526 5.47397 22.1869 5.3335 21.8333 5.3335C21.4796 5.3335 21.1405 5.47397 20.8904 5.72402C20.6404 5.97407 20.4999 6.31321 20.4999 6.66683V8.00016C20.4999 8.35379 20.6404 8.69292 20.8904 8.94297C21.1405 9.19302 21.4796 9.3335 21.8333 9.3335C22.1869 9.3335 22.526 9.19302 22.7761 8.94297C23.0261 8.69292 23.1666 8.35379 23.1666 8.00016V6.66683Z" fill="#5E6F9C"/>
</svg>
