<svg width="33" height="32" viewBox="0 0 33 32" fill="none" xmlns="http://www.w3.org/2000/svg">
<g clip-path="url(#clip0_75_1374)">
<path d="M32.068 10.5093L17.068 0.176C16.7267 -0.0586667 16.276 -0.0586667 15.9333 0.176L0.933333 10.5093C0.661333 10.696 0.5 11.004 0.5 11.3333V30.6667C0.5 31.4027 1.09733 32 1.83333 32H4.5V16C4.5 15.264 5.09733 14.6667 5.83333 14.6667H27.1667C27.9027 14.6667 28.5 15.264 28.5 16V32H31.1667C31.9027 32 32.5 31.4027 32.5 30.6667V11.3333C32.5 11.004 32.3387 10.696 32.068 10.5093Z" fill="#5E6F9C"/>
<path d="M12.8333 25.3335V26.3335C12.8333 26.8855 12.3853 27.3335 11.8333 27.3335C11.2813 27.3335 10.8333 26.8855 10.8333 26.3335V25.3335H8.49992C8.13192 25.3335 7.83325 25.6322 7.83325 26.0002V31.3335C7.83325 31.7015 8.13192 32.0002 8.49992 32.0002H15.1666C15.5346 32.0002 15.8333 31.7015 15.8333 31.3335V26.0002C15.8333 25.6322 15.5346 25.3335 15.1666 25.3335H12.8333Z" fill="#5E6F9C"/>
<path d="M22.1667 25.3335V26.3335C22.1667 26.8855 21.7187 27.3335 21.1667 27.3335C20.6147 27.3335 20.1667 26.8855 20.1667 26.3335V25.3335H17.8334C17.4654 25.3335 17.1667 25.6322 17.1667 26.0002V31.3335C17.1667 31.7015 17.4654 32.0002 17.8334 32.0002H24.5001C24.8681 32.0002 25.1667 31.7015 25.1667 31.3335V26.0002C25.1667 25.6322 24.8681 25.3335 24.5001 25.3335H22.1667Z" fill="#5E6F9C"/>
<path d="M17.5 17.3335V18.3335C17.5 18.8855 17.052 19.3335 16.5 19.3335C15.948 19.3335 15.5 18.8855 15.5 18.3335V17.3335H13.1667C12.7987 17.3335 12.5 17.6322 12.5 18.0002V23.3335C12.5 23.7015 12.7987 24.0002 13.1667 24.0002H19.8333C20.2013 24.0002 20.5 23.7015 20.5 23.3335V18.0002C20.5 17.6322 20.2013 17.3335 19.8333 17.3335H17.5Z" fill="#5E6F9C"/>
</g>
<defs>
<clipPath id="clip0_75_1374">
<rect width="32" height="32" fill="white" transform="translate(0.5)"/>
</clipPath>
</defs>
</svg>
