<svg width="32" height="32" viewBox="0 0 32 32" fill="none" xmlns="http://www.w3.org/2000/svg">
<path d="M16.9375 26.875H18.8125V32H16.9375V26.875Z" fill="#5E6F9C"/>
<path d="M13.1875 26.875H15.0625V32H13.1875V26.875Z" fill="#5E6F9C"/>
<path d="M22.3125 0H9.6875C9.16975 0 8.75 0.41975 8.75 0.9375V32H11.3125V25.9375C11.3125 25.4198 11.7322 25 12.25 25H16H19.75C20.2677 25 20.6875 25.4198 20.6875 25.9375V32H23.25V0.9375C23.25 0.41975 22.8302 0 22.3125 0ZM13.1875 22.1875C13.1875 22.7052 12.7677 23.125 12.25 23.125C11.7322 23.125 11.3125 22.7052 11.3125 22.1875V20.3125C11.3125 19.7948 11.7322 19.375 12.25 19.375C12.7677 19.375 13.1875 19.7948 13.1875 20.3125V22.1875ZM13.1875 16.5625C13.1875 17.0802 12.7677 17.5 12.25 17.5C11.7322 17.5 11.3125 17.0802 11.3125 16.5625V14.6875C11.3125 14.1698 11.7322 13.75 12.25 13.75C12.7677 13.75 13.1875 14.1698 13.1875 14.6875V16.5625ZM16.9375 22.1875C16.9375 22.7052 16.5177 23.125 16 23.125C15.4823 23.125 15.0625 22.7052 15.0625 22.1875V20.3125C15.0625 19.7948 15.4823 19.375 16 19.375C16.5177 19.375 16.9375 19.7948 16.9375 20.3125V22.1875ZM16.9375 16.5625C16.9375 17.0802 16.5177 17.5 16 17.5C15.4823 17.5 15.0625 17.0802 15.0625 16.5625V14.6875C15.0625 14.1698 15.4823 13.75 16 13.75C16.5177 13.75 16.9375 14.1698 16.9375 14.6875V16.5625ZM20.6875 22.1875C20.6875 22.7052 20.2677 23.125 19.75 23.125C19.2323 23.125 18.8125 22.7052 18.8125 22.1875V20.3125C18.8125 19.7948 19.2323 19.375 19.75 19.375C20.2677 19.375 20.6875 19.7948 20.6875 20.3125V22.1875ZM20.6875 16.5625C20.6875 17.0802 20.2677 17.5 19.75 17.5C19.2323 17.5 18.8125 17.0802 18.8125 16.5625V14.6875C18.8125 14.1698 19.2323 13.75 19.75 13.75C20.2677 13.75 20.6875 14.1698 20.6875 14.6875V16.5625ZM13.1875 10.9375C13.1875 11.4552 12.7677 11.875 12.25 11.875C11.7322 11.875 11.3125 11.4552 11.3125 10.9375V9.0625C11.3125 8.54475 11.7322 8.125 12.25 8.125C12.7677 8.125 13.1875 8.54475 13.1875 9.0625V10.9375ZM16.9375 10.9375C16.9375 11.4552 16.5177 11.875 16 11.875C15.4823 11.875 15.0625 11.4552 15.0625 10.9375V9.0625C15.0625 8.54475 15.4823 8.125 16 8.125C16.5177 8.125 16.9375 8.54475 16.9375 9.0625V10.9375ZM20.6875 10.9375C20.6875 11.4552 20.2677 11.875 19.75 11.875C19.2323 11.875 18.8125 11.4552 18.8125 10.9375V9.0625C18.8125 8.54475 19.2323 8.125 19.75 8.125C20.2677 8.125 20.6875 8.54475 20.6875 9.0625V10.9375ZM13.1875 5.3125C13.1875 5.83025 12.7677 6.25 12.25 6.25C11.7322 6.25 11.3125 5.83025 11.3125 5.3125V3.4375C11.3125 2.91975 11.7322 2.5 12.25 2.5C12.7677 2.5 13.1875 2.91975 13.1875 3.4375V5.3125ZM16.9375 5.3125C16.9375 5.83025 16.5177 6.25 16 6.25C15.4823 6.25 15.0625 5.83025 15.0625 5.3125V3.4375C15.0625 2.91975 15.4823 2.5 16 2.5C16.5177 2.5 16.9375 2.91975 16.9375 3.4375V5.3125ZM20.6875 5.3125C20.6875 5.83025 20.2677 6.25 19.75 6.25C19.2323 6.25 18.8125 5.83025 18.8125 5.3125V3.4375C18.8125 2.91975 19.2323 2.5 19.75 2.5C20.2677 2.5 20.6875 2.91975 20.6875 3.4375V5.3125Z" fill="#5E6F9C"/>
<path d="M31.0625 12.5H25.125V32H31.0625C31.5802 32 32 31.5802 32 31.0625V13.4375C32 12.9197 31.5802 12.5 31.0625 12.5ZM29.5 24.6875C29.5 25.2052 29.0803 25.625 28.5625 25.625C28.0447 25.625 27.625 25.2052 27.625 24.6875V22.8125C27.625 22.2948 28.0447 21.875 28.5625 21.875C29.0803 21.875 29.5 22.2948 29.5 22.8125V24.6875ZM29.5 19.0625C29.5 19.5802 29.0803 20 28.5625 20C28.0447 20 27.625 19.5802 27.625 19.0625V17.1875C27.625 16.6698 28.0447 16.25 28.5625 16.25C29.0803 16.25 29.5 16.6698 29.5 17.1875V19.0625Z" fill="#5E6F9C"/>
<path d="M0.9375 12.5C0.41975 12.5 0 12.9197 0 13.4375V31.0625C0 31.5802 0.41975 32 0.9375 32H6.875V12.5H0.9375ZM4.375 24.6875C4.375 25.2052 3.95525 25.625 3.4375 25.625C2.91975 25.625 2.5 25.2052 2.5 24.6875V22.8125C2.5 22.2948 2.91975 21.875 3.4375 21.875C3.95525 21.875 4.375 22.2948 4.375 22.8125V24.6875ZM4.375 19.0625C4.375 19.5802 3.95525 20 3.4375 20C2.91975 20 2.5 19.5802 2.5 19.0625V17.1875C2.5 16.6698 2.91975 16.25 3.4375 16.25C3.95525 16.25 4.375 16.6698 4.375 17.1875V19.0625Z" fill="#5E6F9C"/>
</svg>
