<svg width="33" height="32" viewBox="0 0 33 32" fill="none" xmlns="http://www.w3.org/2000/svg">
<g clip-path="url(#clip0_75_1391)">
<path d="M32.1452 11.6892L23.5182 4.74348C23.1699 4.46305 22.6735 4.46317 22.3253 4.74348L21.2275 5.62717L26.9165 10.2075C27.5927 10.7518 27.9805 11.5619 27.9805 12.43V26.516C27.9805 26.8494 27.9225 27.1694 27.817 27.4671H31.5488C32.074 27.4671 32.4999 27.0412 32.4999 26.516V12.43C32.4998 12.1421 32.3694 11.8697 32.1452 11.6892Z" fill="#5E6F9C"/>
<path d="M25.7237 11.6892L17.0968 4.74348C16.7485 4.46305 16.252 4.46317 15.9039 4.74348L14.8062 5.62723L20.4952 10.2075C21.1713 10.7519 21.5592 11.562 21.5592 12.43V26.516C21.5592 26.8494 21.5012 27.1695 21.3956 27.4672H25.1274C25.6526 27.4672 26.0785 27.0413 26.0785 26.516V12.43C26.0783 12.1421 25.9479 11.8697 25.7237 11.6892Z" fill="#5E6F9C"/>
<path d="M19.3023 11.6892L10.6753 4.74348C10.3271 4.46305 9.83069 4.46317 9.48244 4.74348L0.854688 11.6892C0.630438 11.8697 0.5 12.1421 0.5 12.43V26.516C0.5 27.0413 0.925875 27.4672 1.45113 27.4672H7.37463C7.89988 27.4672 8.32575 27.0413 8.32575 26.516V22.2719C8.32575 21.3054 9.112 20.5192 10.0784 20.5192C11.0449 20.5192 11.8312 21.3054 11.8312 22.2719V26.516C11.8312 27.0413 12.2571 27.4672 12.7823 27.4672H13.2895H14.2942H18.7058C19.2311 27.4672 19.6569 27.0413 19.6569 26.516V12.43C19.657 12.1421 19.5266 11.8697 19.3023 11.6892Z" fill="#5E6F9C"/>
</g>
<defs>
<clipPath id="clip0_75_1391">
<rect width="32" height="32" fill="white" transform="translate(0.5)"/>
</clipPath>
</defs>
</svg>
