<svg width="24" height="25" viewBox="0 0 24 25" fill="none" xmlns="http://www.w3.org/2000/svg">
<circle cx="12" cy="12.8267" r="11.25" stroke="#CAD0D7" stroke-width="1.5"/>
<g clip-path="url(#clip0_178_74)">
<path d="M13.875 7.82666H10.125C8.39938 7.82666 7 9.22604 7 10.9517V14.7017C7 16.4273 8.39938 17.8267 10.125 17.8267H13.875C15.6006 17.8267 17 16.4273 17 14.7017V10.9517C17 9.22604 15.6006 7.82666 13.875 7.82666ZM16.0625 14.7017C16.0625 15.9079 15.0813 16.8892 13.875 16.8892H10.125C8.91875 16.8892 7.9375 15.9079 7.9375 14.7017V10.9517C7.9375 9.74541 8.91875 8.76416 10.125 8.76416H13.875C15.0813 8.76416 16.0625 9.74541 16.0625 10.9517V14.7017Z" fill="#CAD0D7"/>
<path d="M12 10.3267C10.6194 10.3267 9.5 11.446 9.5 12.8267C9.5 14.2073 10.6194 15.3267 12 15.3267C13.3806 15.3267 14.5 14.2073 14.5 12.8267C14.5 11.446 13.3806 10.3267 12 10.3267ZM12 14.3892C11.1387 14.3892 10.4375 13.6879 10.4375 12.8267C10.4375 11.9648 11.1387 11.2642 12 11.2642C12.8612 11.2642 13.5625 11.9648 13.5625 12.8267C13.5625 13.6879 12.8612 14.3892 12 14.3892Z" fill="#CAD0D7"/>
<path d="M14.6866 10.4722C14.8706 10.4722 15.0198 10.323 15.0198 10.139C15.0198 9.95505 14.8706 9.80591 14.6866 9.80591C14.5027 9.80591 14.3535 9.95505 14.3535 10.139C14.3535 10.323 14.5027 10.4722 14.6866 10.4722Z" fill="#CAD0D7"/>
</g>
<defs>
<clipPath id="clip0_178_74">
<rect width="10" height="10" fill="white" transform="translate(7 7.82666)"/>
</clipPath>
</defs>
</svg>
