<svg width="13" height="17" viewBox="0 0 13 17" fill="none" xmlns="http://www.w3.org/2000/svg">
<path d="M8.95923 5.64323C9.50418 5.87372 10.0082 6.17649 10.4653 6.54567V3.936C10.4653 1.76583 8.69944 0 6.52927 0H6.46871C4.3005 0 2.53467 1.76583 2.53467 3.936V6.54567C2.99175 6.17651 3.49572 5.87374 4.0407 5.64323C4.1872 5.58072 4.33761 5.52407 4.48802 5.47329V3.936C4.48802 2.84212 5.37679 1.95335 6.47067 1.95335H6.53122C7.6251 1.95335 8.51387 2.84212 8.51387 3.936V5.47524C8.66231 5.52407 8.81273 5.58072 8.95923 5.64323Z" fill="#FECE24"/>
<path d="M0.964111 11.4642C0.964111 14.5212 3.44291 17 6.4999 17C9.5569 17 12.0357 14.5231 12.0357 11.4642C12.0357 9.96207 11.436 8.59863 10.4652 7.60045C9.91828 7.03986 9.25415 6.59448 8.51187 6.30345C7.88875 6.05928 7.20897 5.92645 6.49992 5.92645C5.79086 5.92645 5.11109 6.05928 4.48797 6.30345C3.7457 6.59255 3.08156 7.03791 2.53462 7.60045C1.56184 8.59863 0.964111 9.96207 0.964111 11.4642ZM5.07394 10.3469C5.09347 9.59094 5.70878 8.97563 6.46472 8.95803C7.26753 8.9385 7.92583 9.58508 7.92583 10.384C7.92583 10.468 7.91802 10.55 7.90434 10.6281C7.83398 11.0325 7.59376 11.3802 7.25774 11.5912C7.11906 11.6791 7.04876 11.8431 7.08394 12.0014L7.50783 14.0114C7.53325 14.1325 7.44142 14.2477 7.31638 14.2477H5.6834C5.55839 14.2477 5.46656 14.1344 5.49198 14.0114L5.91583 12.0014C5.94904 11.8412 5.88067 11.6771 5.742 11.5892C5.40603 11.3782 5.16577 11.0325 5.09543 10.6262C5.0798 10.5364 5.072 10.4426 5.07394 10.3469Z" fill="#FECE24"/>
</svg>
