<svg width="17" height="18" viewBox="0 0 17 18" fill="none" xmlns="http://www.w3.org/2000/svg">
<path fill-rule="evenodd" clip-rule="evenodd" d="M5.375 0C2.61358 0 0.375 2.23858 0.375 5V13C0.375 15.7614 2.61358 18 5.375 18H11.375C14.1364 18 16.375 15.7614 16.375 13V5C16.375 2.23858 14.1364 0 11.375 0H5.375ZM8.31782 4.92785C7.08881 4.95646 6.08846 5.95664 6.0567 7.18544C6.05356 7.34102 6.06623 7.49343 6.09163 7.63946C6.20599 8.2999 6.59661 8.86191 7.14283 9.20482C7.36828 9.34771 7.47943 9.61445 7.42544 9.87482L6.73634 13.1421C6.69502 13.3421 6.84431 13.5263 7.04756 13.5263H9.70244C9.90571 13.5263 10.055 13.3389 10.0137 13.1421L9.32452 9.87482C9.26733 9.6176 9.38162 9.35091 9.6071 9.20803C10.1534 8.86508 10.5439 8.2999 10.6583 7.64263C10.6806 7.51563 10.6933 7.3823 10.6933 7.24574C10.6933 5.94712 9.62301 4.8961 8.31782 4.92785Z" fill="white"/>
</svg>
