<svg width="17" height="24" viewBox="0 0 17 24" fill="none" xmlns="http://www.w3.org/2000/svg">
<path d="M12.2213 7.96691C12.9907 8.29231 13.7022 8.71975 14.3475 9.24095V5.5567C14.3475 2.49293 11.8546 0 8.7908 0H8.70531C5.6443 0 3.15137 2.49293 3.15137 5.5567V9.24095C3.79666 8.71978 4.50814 8.29234 5.27753 7.96691C5.48436 7.87866 5.6967 7.79869 5.90904 7.72699V5.5567C5.90904 4.01241 7.16378 2.75767 8.70807 2.75767H8.79356C10.3379 2.75767 11.5926 4.01241 11.5926 5.5567V7.72975C11.8021 7.79869 12.0145 7.87866 12.2213 7.96691Z" fill="white"/>
<path d="M0.93457 16.1848C0.93457 20.5006 4.43405 24 8.74981 24C13.0656 24 16.5651 20.5033 16.5651 16.1848C16.5651 14.0642 15.7184 12.1393 14.3479 10.7301C13.5758 9.93869 12.6381 9.30992 11.5902 8.89905C10.7105 8.55434 9.75084 8.36682 8.74983 8.36682C7.7488 8.36682 6.78913 8.55434 5.90943 8.89905C4.86152 9.30719 3.92391 9.93594 3.15176 10.7301C1.77842 12.1393 0.93457 14.0642 0.93457 16.1848ZM6.73668 14.6074C6.76426 13.5402 7.63292 12.6715 8.70014 12.6467C9.83352 12.6191 10.7629 13.5319 10.7629 14.6598C10.7629 14.7784 10.7518 14.8942 10.7325 15.0045C10.6332 15.5753 10.2941 16.0662 9.8197 16.3641C9.62391 16.4882 9.52466 16.7198 9.57432 16.9432L10.1728 19.7808C10.2086 19.9518 10.079 20.1145 9.90248 20.1145H7.5971C7.42061 20.1145 7.29097 19.9546 7.32685 19.7808L7.92524 16.9432C7.97212 16.717 7.8756 16.4854 7.67983 16.3613C7.20551 16.0635 6.86632 15.5753 6.76701 15.0017C6.74495 14.8749 6.73395 14.7426 6.73668 14.6074Z" fill="white"/>
</svg>
