<svg width="18" height="18" viewBox="0 0 18 18" fill="none" xmlns="http://www.w3.org/2000/svg">
<path d="M0 9.00165C0 13.9708 4.03 18.0001 9.00001 18.0001C13.97 18.0001 18.0001 13.9739 18.0001 9.00165C18.0001 6.55993 17.0251 4.34365 15.4468 2.7211C14.5576 1.80985 13.4778 1.08588 12.271 0.612811C11.258 0.215913 10.1528 0 9.00004 0C7.84726 0 6.7421 0.215913 5.72904 0.612811C4.52227 1.08274 3.44252 1.80668 2.55332 2.7211C0.971773 4.34365 0 6.55993 0 9.00165ZM6.6817 7.18544C6.71346 5.95664 7.71381 4.95646 8.94282 4.92785C10.248 4.8961 11.3183 5.94712 11.3183 7.24574C11.3183 7.3823 11.3056 7.51563 11.2833 7.64263C11.1689 8.2999 10.7784 8.86508 10.2321 9.20803C10.0066 9.35091 9.89233 9.6176 9.94952 9.87482L10.6387 13.1421C10.68 13.3389 10.5307 13.5263 10.3274 13.5263H7.67256C7.46931 13.5263 7.32002 13.3421 7.36134 13.1421L8.05044 9.87482C8.10443 9.61446 7.99328 9.34771 7.76783 9.20482C7.22161 8.8619 6.83099 8.2999 6.71663 7.63946C6.69123 7.49343 6.67856 7.34102 6.6817 7.18544Z" fill="white"/>
</svg>
