<svg width="16" height="16" viewBox="0 0 16 16" fill="none" xmlns="http://www.w3.org/2000/svg">
<path d="M0 8.00143C0 12.4184 3.58221 16 7.99998 16C12.4177 16 16 12.4212 16 8.00143C16 5.83102 15.1333 3.86101 13.7304 2.41874C12.94 1.60875 11.9802 0.965223 10.9075 0.544718C10.0071 0.191922 9.02467 0 8 0C6.97531 0 5.99295 0.191922 5.09246 0.544718C4.01978 0.962429 3.06 1.60593 2.26961 2.41874C0.863794 3.86101 0 5.83102 0 8.00143ZM5.93926 6.38703C5.96749 5.29477 6.85669 4.40572 7.94914 4.38029C9.1093 4.35207 10.0606 5.2863 10.0606 6.44062C10.0606 6.56202 10.0493 6.68053 10.0296 6.79342C9.9279 7.37765 9.58075 7.88003 9.09516 8.18488C8.89474 8.31189 8.79314 8.54894 8.84398 8.77758L9.45657 11.6818C9.4933 11.8568 9.36059 12.0233 9.1799 12.0233H6.82002C6.63936 12.0233 6.50666 11.8596 6.54338 11.6818L7.15591 8.77758C7.2039 8.54614 7.1051 8.30904 6.90471 8.18203C6.41918 7.87721 6.07196 7.37765 5.97031 6.7906C5.94773 6.6608 5.93647 6.52532 5.93926 6.38703Z" fill="#FECE24"/>
</svg>
