<svg width="66" height="66" viewBox="0 0 66 66" fill="none" xmlns="http://www.w3.org/2000/svg">
<path d="M25.1025 37.4276H41.1042V54.0374H25.1025V37.4276Z" fill="#F9D7AA"/>
<path d="M25.0186 37.4276V40.1354C25.0186 40.1354 28.1534 47.2918 34.4767 47.2918C37.5115 47.2918 39.6327 46.0998 41.0202 44.8603V37.4276H25.0186Z" fill="#E8AC6B"/>
<path d="M57.7984 58.6893C57.5006 51.2697 51.7911 49.5561 48.3629 49.1983C46.8753 49.0431 40.8147 49.1432 40.8147 49.1432C40.6696 51.6271 37.7179 54.0059 33.1031 54.0951C28.4882 54.0059 25.1394 51.0661 25.1394 49.1432C25.1394 49.1432 19.3308 49.0431 17.8434 49.1983C14.4151 49.5561 8.70561 51.2697 8.40784 58.6893C8.15158 60.5396 8.40784 63.1829 8.40784 63.1829C8.40784 63.1829 16.7525 65.7369 32.5241 65.8221C32.6416 65.8239 33.5647 65.8239 33.6821 65.8221C49.4538 65.7369 57.7984 63.1829 57.7984 63.1829C57.7984 63.1829 58.0545 60.5396 57.7984 58.6893Z" fill="#12273F"/>
<path d="M40.8151 49.1387C40.67 51.6226 37.7184 52.9549 33.1034 53.0441C28.4886 52.9549 25.1397 51.0616 25.1397 49.1387C25.1397 49.1387 24.3972 49.1259 23.377 49.1166L29.8624 65.7788C30.7251 65.7993 31.6117 65.8128 32.5244 65.8177C32.6418 65.8195 33.5649 65.8195 33.6824 65.8177C34.5386 65.8131 35.3715 65.8007 36.1839 65.7824L42.7425 49.1158C41.6341 49.1253 40.8151 49.1387 40.8151 49.1387Z" fill="#8AC1D6"/>
<path d="M46.262 25.8569L47.3921 22.2415C47.3921 22.2415 49.3806 21.6895 50.4294 23.8285C51.4782 25.9674 48.7338 30.3622 46.3664 30.7315C45.71 29.0584 46.262 25.8569 46.262 25.8569Z" fill="#F9D7AA"/>
<path d="M19.8163 25.8569L18.6862 22.2415C18.6862 22.2415 16.6977 21.6895 15.6489 23.8285C14.6002 25.9674 17.3446 30.3622 19.7119 30.7315C20.3683 29.0584 19.8163 25.8569 19.8163 25.8569Z" fill="#F9D7AA"/>
<path d="M47.3131 25.8669C47.3181 25.7158 47.3207 25.5648 47.3207 25.4137C47.3207 16.0247 50.0605 5.43148 33.3933 5.27589C33.3167 5.27434 33.0209 5.27228 33.0201 5.27228C33.0193 5.27228 32.7235 5.27447 32.6469 5.27589C15.9797 5.43148 18.7195 16.0247 18.7195 25.4137C18.7195 25.5648 18.7221 25.7159 18.7271 25.8669C18.7321 26.0178 18.7103 32.8542 19.7426 34.601C20.7749 36.3478 26.8888 44.3313 32.6851 44.3313C32.6905 44.3258 33.3599 44.3256 33.3655 44.3313C39.1618 44.3313 45.2758 36.348 46.308 34.601C47.3403 32.8542 47.3234 25.8669 47.3234 25.8669H47.3131Z" fill="#F9D7AA"/>
<path d="M33.0614 54.8127L30.4463 57.7967L31.7644 65.8197H34.3583L35.6765 57.7967L33.0614 54.8127Z" fill="#091E26"/>
<path d="M35.3081 53.5996C35.3081 52.2091 33.9996 51.7297 33.0617 51.7279L33.0616 51.7278C33.0607 51.7278 33.0598 51.7279 33.0589 51.7279C33.058 51.7279 33.057 51.7278 33.0561 51.7278L33.056 51.7279C32.1181 51.7297 30.8096 52.2091 30.8096 53.5996C30.8096 54.844 32.0257 55.9054 32.8379 56.1185C32.894 56.1444 33.2237 56.1444 33.2797 56.1185C34.092 55.9054 35.3081 54.844 35.3081 53.5996Z" fill="#091E26"/>
<path d="M33.0615 51.6946L41.1044 46.339L42.8967 48.8208L37.979 55.7822L33.0615 51.6946Z" fill="#B3EDFF"/>
<path d="M33.0617 51.6946L25.1029 46.339L23.2266 48.8208L28.1441 55.7822L33.0617 51.6946Z" fill="#B3EDFF"/>
<path d="M23.2264 48.8208L20.6582 49.0087C20.6582 49.0087 20.8516 51.6646 21.0567 55.9132H24.3394L21.7936 58.4059L27.9217 65.7226L29.9236 65.7907L32.2056 65.8145L23.2264 48.8208Z" fill="#45738D"/>
<path d="M42.8969 48.8208L45.5298 49.0087C45.5298 49.0087 45.3365 51.6646 45.1314 55.9132C43.0876 55.9132 41.8487 55.9132 41.8487 55.9132L44.3944 58.4059L38.2664 65.7226L36.2726 65.7851L33.9824 65.8145L42.8969 48.8208Z" fill="#45738D"/>
<path d="M17.0417 22.3999C18.0406 22.1788 19.0127 22.1741 20.0335 23.921C20.1014 21.2213 19.6277 19.1569 20.6585 18.5216C21.3719 19.3157 21.3719 20.2684 21.3719 20.2684C22.6423 18.204 24.855 16.616 25.0191 12.9635C26.136 15.0279 30.1793 20.9037 41.0207 19.792C40.1106 18.6803 39.7563 17.4099 39.7563 17.4099C39.7563 17.4099 41.6449 19.1524 44.5571 19.4744C44.3983 18.8391 44.5571 17.2511 44.5571 17.2511C44.5571 17.2511 46.5075 18.6651 46.867 23.9209C47.392 22.2414 47.9463 21.9182 48.7013 22.2786C49.083 20.9037 51.7125 9.87744 46.9392 5.27213C41.8957 0.406052 27.8827 -3.21325 22.007 5.27213C18.831 5.6586 15.5698 8.17459 17.0417 22.3999Z" fill="#240703"/>
</svg>
