<svg width="32" height="32" viewBox="0 0 32 32" fill="none" xmlns="http://www.w3.org/2000/svg">
<path d="M27.3218 4.67606C24.3058 1.66069 20.2849 0 15.9999 0C11.7241 0 7.70482 1.66563 4.68238 4.69006C1.65982 7.71469 -0.00311802 11.7354 -0.000118018 16.0115C0.00288198 20.2932 1.68769 24.3201 4.74394 27.3506C7.77082 30.3518 11.7636 32 15.9997 32C16.042 32 16.0845 31.9999 16.1269 31.9995C18.8949 31.9779 21.618 31.2375 24.0019 29.8581L23.0629 28.2352C20.9596 29.4522 18.5561 30.1055 16.1123 30.1246C12.3323 30.1531 8.76388 28.6959 6.06419 26.0191C3.36532 23.3431 1.87757 19.7885 1.87488 16.0102C1.87226 12.2351 3.34032 8.68563 6.00869 6.01544C8.67688 3.34544 12.2252 1.875 15.9999 1.875C23.7871 1.875 30.1236 8.21031 30.1249 15.9974C30.1254 19.0841 29.1486 22.0161 27.3 24.4762C27.1392 24.6903 26.9019 24.8186 26.6318 24.8377C26.3588 24.857 26.0906 24.7571 25.897 24.5635L24.6216 23.2881L25.1879 22.7219L20.7684 18.3024L19.0007 20.0702C15.3204 19.5742 12.4256 16.6794 11.9296 12.9991L13.6974 11.2314L9.27794 6.81194L6.83707 9.25281C6.59794 13.3934 8.05907 17.6138 11.2225 20.7773C14.3859 23.9407 18.6064 25.4018 22.7469 25.1627L23.2958 24.6139L24.5712 25.8892C25.1491 26.4672 25.9483 26.7656 26.7638 26.708C27.5723 26.6509 28.314 26.248 28.799 25.6025C30.8936 22.8149 32.0005 19.4934 31.9999 15.9971C31.9991 11.7121 30.3378 7.6915 27.3218 4.67606Z" fill="black"/>
</svg>
