<svg width="24" height="25" viewBox="0 0 24 25" fill="none" xmlns="http://www.w3.org/2000/svg">
<circle cx="12" cy="12.8267" r="11.25" stroke="#CAD0D7" stroke-width="1.5"/>
<g clip-path="url(#clip0_178_86)">
<path d="M16.9109 15.0631C16.884 15.0181 16.7177 14.6568 15.9177 13.9142C15.0801 13.1367 15.1926 13.2629 16.2014 11.9184C16.8159 11.0996 17.0615 10.5996 16.9846 10.3858C16.9115 10.1821 16.4596 10.2358 16.4596 10.2358L14.957 10.2446C14.957 10.2446 14.8457 10.2296 14.7626 10.279C14.682 10.3277 14.6301 10.4402 14.6301 10.4402C14.6301 10.4402 14.3919 11.074 14.0744 11.6128C13.405 12.7498 13.1368 12.8098 13.0275 12.7391C12.7731 12.5747 12.8368 12.0778 12.8368 11.7253C12.8368 10.6234 13.0037 10.1639 12.5112 10.0452C12.3474 10.0058 12.2274 9.97956 11.8092 9.97518C11.273 9.96955 10.8185 9.97706 10.5616 10.1027C10.3904 10.1864 10.2585 10.3733 10.3391 10.384C10.4385 10.3971 10.6635 10.4446 10.7829 10.6071C10.9373 10.8165 10.9317 11.2878 10.9317 11.2878C10.9317 11.2878 11.0204 12.5847 10.7248 12.746C10.5216 12.8566 10.2435 12.631 9.64658 11.5991C9.34093 11.0709 9.10967 10.4865 9.10967 10.4865C9.10967 10.4865 9.06529 10.3777 8.98591 10.3196C8.88965 10.249 8.75464 10.2264 8.75464 10.2264L7.32579 10.2352C7.32579 10.2352 7.1114 10.2414 7.03264 10.3346C6.96264 10.4177 7.02702 10.589 7.02702 10.589C7.02702 10.589 8.14585 13.206 9.41219 14.5255C10.5742 15.735 11.893 15.6556 11.893 15.6556H12.4905C12.4905 15.6556 12.6712 15.6356 12.7631 15.5362C12.8481 15.445 12.8449 15.2737 12.8449 15.2737C12.8449 15.2737 12.8331 14.4718 13.2056 14.3536C13.5725 14.2374 14.0438 15.1287 14.5432 15.4718C14.9207 15.7312 15.2076 15.6744 15.2076 15.6744L16.5433 15.6556C16.5433 15.6556 17.2421 15.6125 16.9109 15.0631Z" fill="#CAD0D7"/>
</g>
<defs>
<clipPath id="clip0_178_86">
<rect width="10" height="10" fill="white" transform="translate(7 7.82666)"/>
</clipPath>
</defs>
</svg>
