<svg width="20" height="22" viewBox="0 0 20 22" fill="none" xmlns="http://www.w3.org/2000/svg">
<path d="M17.6499 1.63002L10.6499 0.0700152C10.2212 -0.0200832 9.77855 -0.0200832 9.3499 0.0700152L2.34989 1.63002C1.68319 1.77798 1.08692 2.149 0.659627 2.68175C0.232338 3.21449 -0.000393151 3.87708 -0.000105634 4.56002V8.63002C-0.0126967 11.4683 0.833438 14.2441 2.42717 16.5928C4.02091 18.9414 6.28772 20.7532 8.9299 21.79C9.26935 21.9295 9.63291 22.0008 9.9999 22C10.3658 21.9992 10.7284 21.9314 11.0699 21.8C13.7113 20.759 15.9769 18.9449 17.5702 16.5951C19.1635 14.2452 20.0104 11.4691 19.9999 8.63002V4.56002C20.0002 3.87708 19.7675 3.21449 19.3402 2.68175C18.9129 2.149 18.3166 1.77798 17.6499 1.63002ZM14.7499 8.76002L9.93989 13.49C9.75253 13.6763 9.49908 13.7808 9.23489 13.7808C8.97071 13.7808 8.71726 13.6763 8.52989 13.49L6.2499 11.25C6.15617 11.1571 6.08177 11.0465 6.031 10.9246C5.98024 10.8027 5.9541 10.672 5.9541 10.54C5.9541 10.408 5.98024 10.2773 6.031 10.1554C6.08177 10.0336 6.15617 9.92298 6.2499 9.83002C6.43726 9.64376 6.69071 9.53922 6.9549 9.53922C7.21908 9.53922 7.47253 9.64376 7.65989 9.83002L9.23989 11.38L13.3499 7.38002C13.4438 7.28743 13.555 7.21425 13.6772 7.16465C13.7994 7.11505 13.9301 7.08999 14.062 7.09092C14.1938 7.09185 14.3242 7.11874 14.4457 7.17006C14.5671 7.22138 14.6773 7.29612 14.7699 7.39002C14.8625 7.48391 14.9357 7.59512 14.9853 7.7173C15.0349 7.83948 15.0599 7.97023 15.059 8.10209C15.0581 8.23394 15.0312 8.36433 14.9798 8.4858C14.9285 8.60726 14.8538 8.71743 14.7599 8.81002L14.7499 8.76002Z" fill="#FECE24"/>
</svg>
