<svg width="22" height="24" viewBox="0 0 22 24" fill="none" xmlns="http://www.w3.org/2000/svg">
<path d="M5.375 15.5156C5.76333 15.5156 6.07812 15.2008 6.07812 14.8125C6.07812 14.4242 5.76333 14.1094 5.375 14.1094C4.98667 14.1094 4.67188 14.4242 4.67188 14.8125C4.67188 15.2008 4.98667 15.5156 5.375 15.5156Z" fill="#FECE24"/>
<path d="M5.375 24C6.59173 24 10.2969 23.9531 10.2969 20.4375V11.0964C9.20684 10.7994 7.91131 10.5938 6.07812 10.5938C4.52769 10.5938 3.26562 9.33239 3.26562 7.78125C3.26562 6.23011 4.52769 4.96875 6.07812 4.96875C7.8282 4.96875 9.16794 5.13656 10.2969 5.3857V3.5625C10.2969 0.046875 6.59173 0 5.375 0C4.15827 0 0.453125 0.046875 0.453125 3.5625V20.4375C0.453125 23.9531 4.15827 24 5.375 24ZM5.375 12.7031C6.53816 12.7031 7.48438 13.6493 7.48438 14.8125C7.48438 15.728 6.89478 16.5011 6.07812 16.7924V19.0312C6.07812 19.4199 5.76364 19.7344 5.375 19.7344C4.98636 19.7344 4.67188 19.4199 4.67188 19.0312V16.7924C3.85522 16.5011 3.26562 15.728 3.26562 14.8125C3.26562 13.6493 4.21184 12.7031 5.375 12.7031Z" fill="#FECE24"/>
<path d="M4.67188 7.78125C4.67188 8.55647 5.3022 9.1875 6.07812 9.1875C9.59652 9.1875 11.3818 9.9023 13.1094 10.5938C14.918 11.3168 16.625 12 20.1406 12C20.9165 12 21.5469 11.369 21.5469 10.5938C21.5469 9.81853 20.9165 9.1875 20.1406 9.1875C16.6222 9.1875 14.837 8.4727 13.1094 7.78125C11.3007 7.0582 9.59375 6.375 6.07812 6.375C5.3022 6.375 4.67188 7.00603 4.67188 7.78125Z" fill="#FECE24"/>
</svg>
