<svg width="16" height="24" viewBox="0 0 16 24" fill="none" xmlns="http://www.w3.org/2000/svg">
<path d="M11.4088 7.96691C12.1782 8.29231 12.8897 8.71975 13.535 9.24095V5.5567C13.535 2.49293 11.0421 0 7.9783 0H7.89281C4.8318 0 2.33887 2.49293 2.33887 5.5567V9.24095C2.98416 8.71978 3.69564 8.29234 4.46503 7.96691C4.67186 7.87866 4.8842 7.79869 5.09654 7.72699V5.5567C5.09654 4.01241 6.35128 2.75767 7.89557 2.75767H7.98106C9.52535 2.75767 10.7801 4.01241 10.7801 5.5567V7.72975C10.9896 7.79869 11.202 7.87866 11.4088 7.96691Z" fill="white"/>
<path d="M0.12207 16.1848C0.12207 20.5006 3.62155 24 7.93731 24C12.2531 24 15.7526 20.5033 15.7526 16.1848C15.7526 14.0642 14.9059 12.1393 13.5354 10.7301C12.7633 9.93869 11.8256 9.30992 10.7777 8.89905C9.89804 8.55434 8.93834 8.36682 7.93733 8.36682C6.9363 8.36682 5.97663 8.55434 5.09693 8.89905C4.04902 9.30719 3.11141 9.93594 2.33926 10.7301C0.965917 12.1393 0.12207 14.0642 0.12207 16.1848ZM5.92418 14.6074C5.95176 13.5402 6.82042 12.6715 7.88764 12.6467C9.02102 12.6191 9.95038 13.5319 9.95038 14.6598C9.95038 14.7784 9.93935 14.8942 9.92004 15.0045C9.82071 15.5753 9.48157 16.0662 9.0072 16.3641C8.81141 16.4882 8.71216 16.7198 8.76182 16.9432L9.36026 19.7808C9.39614 19.9518 9.2665 20.1145 9.08998 20.1145H6.7846C6.60811 20.1145 6.47847 19.9546 6.51435 19.7808L7.11274 16.9432C7.15962 16.717 7.0631 16.4854 6.86733 16.3613C6.39301 16.0635 6.05382 15.5753 5.95451 15.0017C5.93245 14.8749 5.92145 14.7426 5.92418 14.6074Z" fill="white"/>
</svg>
