<svg width="24" height="25" viewBox="0 0 24 25" fill="none" xmlns="http://www.w3.org/2000/svg">
<circle cx="12" cy="12.8267" r="11.25" stroke="#CAD0D7" stroke-width="1.5"/>
<g clip-path="url(#clip0_104_248)">
<path d="M14.4997 7.82874L13.203 7.82666C11.7461 7.82666 10.8046 8.7926 10.8046 10.2876V11.4223H9.50078C9.38811 11.4223 9.29688 11.5137 9.29688 11.6263V13.2704C9.29688 13.383 9.38822 13.4743 9.50078 13.4743H10.8046V17.6227C10.8046 17.7353 10.8959 17.8266 11.0085 17.8266H12.7097C12.8223 17.8266 12.9136 17.7352 12.9136 17.6227V13.4743H14.438C14.5507 13.4743 14.642 13.383 14.642 13.2704L14.6426 11.6263C14.6426 11.5722 14.621 11.5204 14.5829 11.4821C14.5447 11.4439 14.4927 11.4223 14.4386 11.4223H12.9136V10.4604C12.9136 9.99813 13.0237 9.76343 13.626 9.76343L14.4995 9.76312C14.6121 9.76312 14.7033 9.67178 14.7033 9.55921V8.03264C14.7033 7.92019 14.6122 7.82895 14.4997 7.82874Z" fill="#CAD0D7"/>
</g>
<defs>
<clipPath id="clip0_104_248">
<rect width="10" height="9.9999" fill="white" transform="translate(7 7.82666)"/>
</clipPath>
</defs>
</svg>
